<?xml version="1.0" standalone="no"?>
<!DOCTYPE svg PUBLIC "-//W3C//DTD SVG 1.1//EN" "http://www.w3.org/Graphics/SVG/1.1/DTD/svg11.dtd" >
<svg xmlns="http://www.w3.org/2000/svg">
<metadata></metadata>
<defs>
<font id="CaviarDreamsRegular" horiz-adv-x="430" >
<font-face units-per-em="2048" ascent="1638" descent="-410" />
<missing-glyph horiz-adv-x="708" />
<glyph horiz-adv-x="2048" />
<glyph horiz-adv-x="2048" />
<glyph unicode="&#xd;" horiz-adv-x="708" />
<glyph unicode=" "  horiz-adv-x="708" />
<glyph unicode="&#x09;" horiz-adv-x="708" />
<glyph unicode="&#xa0;" horiz-adv-x="708" />
<glyph unicode="!" d="M125 75.5q0 37.5 26.5 63.5t63.5 26t63.5 -26t26.5 -63.5t-26.5 -63.5t-63.5 -26t-63.5 26t-26.5 63.5zM168 276v1324h90v-1324h-90z" />
<glyph unicode="&#x22;" horiz-adv-x="575" d="M125 997v600h90v-600h-90zM360 997v600h90v-600h-90z" />
<glyph unicode="#" horiz-adv-x="1653" d="M125 575l23 90h445l57 230h-445l23 90h445l111 445h90l-111 -445h230l111 445h90l-111 -445h445l-23 -90h-445l-57 -230h445l-23 -90h-445l-111 -445h-90l111 445h-230l-111 -445h-90l111 445h-445zM683 665h230l57 230h-230z" />
<glyph unicode="$" horiz-adv-x="1011" d="M100 445l82 30q12 -115 93.5 -196t190.5 -92v704q-256 111 -256 319q0 119 79 198.5t177 90.5v163h90v-165q88 -15 145 -71t77 -118l-78 -31q-17 46 -54.5 83t-89.5 50v-464q137 -53 246 -161.5t109 -277.5t-110 -279t-245 -126v-140h-90v139q-144 11 -245 112.5 t-121 231.5zM297 1210q0 -86 51 -137t118 -88v428q-62 -10 -115.5 -63.5t-53.5 -139.5zM556 189q100 15 185 100t85 218.5t-84 217.5t-186 131v-667z" />
<glyph unicode="%" horiz-adv-x="1221" d="M80 984q0 96 67.5 163.5t163.5 67.5t163.5 -67.5t67.5 -163.5t-67.5 -163.5t-163.5 -67.5t-163.5 67.5t-67.5 163.5zM115 54l918 1311l74 -51l-918 -1311zM167 984q0 -60 42 -102t101.5 -42t102 42t42.5 102t-42.5 102t-102 42t-101.5 -42t-42 -102zM680 384 q0 96 67.5 163.5t163.5 67.5t163.5 -67.5t67.5 -163.5t-67.5 -163.5t-163.5 -67.5t-163.5 67.5t-67.5 163.5zM767 384q0 -60 42 -102t101.5 -42t102 42t42.5 102t-42.5 102t-102 42t-101.5 -42t-42 -102z" />
<glyph unicode="&#x26;" horiz-adv-x="1304" d="M75 455.5q0 196.5 137 342.5q94 101 244 151q-72 31 -147.5 111.5t-75.5 220t99 239t239.5 99.5t240.5 -99q55 -53 76 -119l-81 -32q-18 49 -59 90q-73 72 -176 72t-176 -72.5t-73 -176t70.5 -178.5t130.5 -98t150 -24v-84l-72 -2q-219 -41 -329 -161t-110 -279.5 t113 -272.5t272.5 -113t272.5 113q66 66 94 148q-13 5 -43 22t-102 92q-48 44 -69 55.5t-39 11.5q-58 0 -83 -45q-13 -22 -13 -39q0 -92 95 -92q18 0 41 3l-9 -82q-25 -7 -57.5 -7t-70.5 21q-60 33 -79 104q-7 25 -7 58.5t24 75.5q52 90 156 90q44 0 84.5 -23t104.5 -90 q58 -53 86.5 -69t53.5 -16q84 0 122 66q17 31 17 55q0 83 -65 121q-28 16 -58 16t-59 -8l-1 89q28 8 68.5 8t91.5 -29q78 -44 102 -131q8 -30 8 -71.5t-29 -91.5q-59 -105 -182 -110q-33 -108 -119 -194q-139 -140 -335 -140t-335 139t-139 335.5z" />
<glyph unicode="'" horiz-adv-x="340" d="M125 997v600h90v-600h-90z" />
<glyph unicode="(" horiz-adv-x="703" d="M100 799.5q0 439.5 204 694.5q131 165 299 223v-89q-135 -62 -244 -199q-181 -228 -181 -629.5t181 -629.5q109 -137 244 -202v-85q-168 58 -299 223q-204 254 -204 693.5z" />
<glyph unicode=")" horiz-adv-x="703" d="M100 -32q135 65 244 202q181 228 181 629.5t-181 629.5q-109 137 -244 199v89q168 -58 299 -223q204 -255 204 -694.5t-204 -693.5q-131 -165 -299 -223v85z" />
<glyph unicode="*" horiz-adv-x="800" d="M128 1162l193 135l-193 135l52 74l175 -123v214h90v-213l174 122l52 -74l-193 -135l193 -135l-52 -74l-174 122v-213h-90v214l-175 -123z" />
<glyph unicode="+" horiz-adv-x="1050" d="M125 547v90h355v355h90v-355h355v-90h-355v-355h-90v355h-355z" />
<glyph unicode="," horiz-adv-x="379" d="M10 -219l103 385h166l-185 -385h-84z" />
<glyph unicode="-" horiz-adv-x="840" d="M125 547v90h590v-90h-590z" />
<glyph unicode="." horiz-adv-x="380" d="M100 75.5q0 37.5 26.5 63.5t63.5 26t63.5 -26t26.5 -63.5t-26.5 -63.5t-63.5 -26t-63.5 26t-26.5 63.5z" />
<glyph unicode="/" horiz-adv-x="727" d="M-50 0l724 1600h103l-725 -1600h-102z" />
<glyph unicode="0" horiz-adv-x="1250" d="M76 521v530q0 227 161 388t388.5 161t388 -161t160.5 -388v-530q0 -227 -160.5 -388t-388 -161t-388.5 161t-161 388zM171 521q0 -188 133 -320.5t321 -132.5t321 132.5t133 320.5v530q0 188 -133 320.5t-321 132.5t-321 -132.5t-133 -320.5v-530z" />
<glyph unicode="1" horiz-adv-x="1250" d="M532 1442l123 158h62v-1600h-90v1442h-95z" />
<glyph unicode="2" horiz-adv-x="1250" d="M151 1219q23 150 134 262q140 141 337.5 141t337 -140t139.5 -337.5t-137 -344.5q-93 -101 -220 -196t-286 -214t-198 -300h841v-90h-943q46 310 211.5 433.5t292.5 219t236 214.5t109 277.5t-112 270.5t-270 112t-262.5 -104t-118.5 -237z" />
<glyph unicode="3" horiz-adv-x="1250" d="M151 381l91 33q14 -133 118.5 -237t262.5 -104t270 112t112 270.5t-109 277.5t-327 160l-75 2v90q93 1 152.5 24t129 97t69.5 176.5t-72 174t-173.5 71.5t-174.5 -71q-40 -41 -59 -92l-86 34q22 70 77 123q101 100 243 100t241.5 -100.5t99.5 -241t-76 -222t-142 -108.5 q144 -48 239 -150q137 -147 137 -344.5t-139.5 -337.5t-337 -140t-337.5 141q-111 112 -134 262z" />
<glyph unicode="4" horiz-adv-x="1250" d="M173 468l660 1132h90v-1042h153v-90h-153v-468h-90v468h-660zM328 558h505v848z" />
<glyph unicode="5" horiz-adv-x="1250" d="M117 210l64 71q85 -126 246 -175q72 -22 163 -22t197 56q173 92 231 280q22 72 22 163t-57 198q-92 172 -280 238q-81 28 -193 28t-267 -49l-72 63l184 507v32h500v-90h-425l-148 -407q128 41 237 41t210 -35q226 -77 336 -284q69 -129 69 -264q0 -84 -26 -169 q-69 -225 -276 -336q-126 -67 -235.5 -67t-197.5 27q-180 55 -282 194z" />
<glyph unicode="6" horiz-adv-x="1250" d="M73 504q10 353 170 577t396 488q14 16 27 31h124q-20 -25 -42 -50q-263 -294 -417 -513q-33 -46 -59 -97q151 131 367.5 131t377 -161t160.5 -388.5t-160.5 -388.5t-388 -161t-385.5 158t-164 374h-6zM174 521q0 -188 133 -320.5t321 -132.5t321 132.5t133 320.5 t-133 321t-321 133t-321 -133t-133 -321z" />
<glyph unicode="7" horiz-adv-x="1250" d="M153 0q10 353 170 577t396 488t275 445h-841v90h943q-6 -260 -268.5 -554t-416.5 -513t-164 -533h-94z" />
<glyph unicode="8" horiz-adv-x="1250" d="M107 455.5q0 197.5 137 344.5q95 102 239 150q-66 27 -142 108.5t-76 222t99.5 241t242.5 100.5h36q143 0 242.5 -100.5t99.5 -241t-76 -222t-142 -108.5q144 -48 239 -150q137 -147 137 -344.5t-139.5 -337.5t-337.5 -140h-82q-198 0 -337.5 140t-139.5 337.5z M201 455.5q0 -158.5 112 -270.5t271 -112q20 0 40 2h2q20 -2 40 -2q159 0 271 112t112 270.5t-107.5 276t-316.5 159.5q-209 -42 -316.5 -159.5t-107.5 -276zM361 1282.5q0 -102.5 69.5 -176.5t114 -91t80.5 -23q36 6 80.5 23t114 91t69.5 176.5t-72 174t-174 71.5 q-9 0 -17 -1h-2q-8 1 -17 1q-102 0 -174 -71.5t-72 -174z" />
<glyph unicode="9" horiz-adv-x="1250" d="M73 1050.5q0 227.5 160.5 388.5t388 161t385.5 -158t164 -374h6q-10 -353 -170 -577t-396 -488q-14 -16 -27 -31h-124q20 25 42 50q263 294 417 513q33 46 59 97q-151 -131 -367.5 -131t-377 161t-160.5 388.5zM168 1051q0 -188 133 -321t321 -133t321 133t133 321 t-133 320.5t-321 132.5t-321 -132.5t-133 -320.5z" />
<glyph unicode=":" d="M125 75.5q0 37.5 26.5 63.5t63.5 26t63.5 -26t26.5 -63.5t-26.5 -63.5t-63.5 -26t-63.5 26t-26.5 63.5zM125 692.5q0 37.5 26.5 63.5t63.5 26t63.5 -26t26.5 -63.5t-26.5 -63.5t-63.5 -26t-63.5 26t-26.5 63.5z" />
<glyph unicode=";" horiz-adv-x="477" d="M83 -219l103 385h166l-185 -385h-84zM125 692.5q0 37.5 26.5 63.5t63.5 26t63.5 -26t26.5 -63.5t-26.5 -63.5t-63.5 -26t-63.5 26t-26.5 63.5z" />
<glyph unicode="&#x3c;" horiz-adv-x="1349" d="M100 563l1149 418v-96l-886 -322l886 -322v-96z" />
<glyph unicode="=" horiz-adv-x="1050" d="M125 387v90h800v-90h-800zM125 707v90h800v-90h-800z" />
<glyph unicode="&#x3e;" horiz-adv-x="1349" d="M100 145v96l886 322l-886 322v96l1149 -418z" />
<glyph unicode="?" horiz-adv-x="956" d="M127 1210v8q0 65 32 129q62 127 194 173q58 20 123 20t137 -34q126 -61 172 -192q20 -57 20 -122t-35 -137q-61 -127 -203 -237q-117 -103 -177 -229q-40 -82 -40 -156t23 -139l-83 -29q-28 80 -28 171t49 191q80 167 241 289q162 157 162 286q0 41 -14 82 q-35 98 -128 143q-53 25 -100.5 25t-89.5 -15q-97 -34 -142 -126q-25 -52 -25 -105zM236 75.5q0 37.5 26.5 63.5t63.5 26t63.5 -26t26.5 -63.5t-26.5 -63.5t-63.5 -26t-63.5 26t-26.5 63.5z" />
<glyph unicode="@" horiz-adv-x="1626" d="M125 547.5q0 283.5 202.5 486t487 202.5t485.5 -202.5t201 -486.5q0 -127 -92.5 -272t-204.5 -145q-13 0 -25 2q-86 18 -93 100v81q-121 -127 -271.5 -127t-257.5 107t-107 256.5t107 256.5t257.5 107t271.5 -127v114h81v-648q18 -43 58.5 -43t118.5 110.5t78 227.5 q0 251 -178.5 429.5t-429.5 178.5t-428.5 -178.5t-177.5 -429.5t177.5 -428.5t428.5 -177.5q172 0 251 49l57 -60q-120 -70 -308 -70q-284 0 -486.5 202t-202.5 485.5zM537 549q0 -116 81.5 -198t197.5 -82t198 82q57 57 74 132v132q-17 75 -74 132q-82 83 -198 83 t-197.5 -82.5t-81.5 -198.5z" />
<glyph unicode="A" horiz-adv-x="1291" d="M50 0l596 1637l595 -1637h-95l-223 613h-554l-223 -613h-96zM402 703h488l-244 671z" />
<glyph unicode="B" horiz-adv-x="1066" d="M150 0v1600h269v1h15q123 0 210.5 -87.5t87.5 -211t-127 -230.5q112 -23 211 -132q160 -161 160 -388.5t-154.5 -387.5t-361.5 -163v-1h-310zM240 90h220v-1q167 11 294 142.5t127 319.5t-133 321t-321 133h-187v-915zM240 1101h217q75 7 132 59.5t57 142.5t-61 148.5 t-151 58.5h-194v-409z" />
<glyph unicode="C" horiz-adv-x="1595" d="M125 799.5q0 339.5 239.5 579.5t568 240t562.5 -213l-68 -62q-206 183 -495 183t-502 -213t-213 -514.5t213 -514.5t502 -213t495 183l68 -61q-234 -213 -562.5 -213t-568 239.5t-239.5 579z" />
<glyph unicode="D" horiz-adv-x="1199" d="M150 0v1600h90v-2h7q395 0 612 -218q240 -241 240 -580.5t-240 -579.5q-217 -218 -612 -218h-7v-2h-90zM240 93h7q356 0 547 192q213 213 213 514.5t-213 515.5q-191 191 -547 191h-7v-1413z" />
<glyph unicode="E" horiz-adv-x="1075" d="M150 0v1600h800v-90h-710v-665h710v-90h-710v-665h710v-90h-800z" />
<glyph unicode="F" horiz-adv-x="975" d="M150 0v1600h700v-90h-610v-665h610v-90h-610v-755h-90z" />
<glyph unicode="G" horiz-adv-x="1620" d="M125 799.5q0 339.5 239.5 579.5t568 240t562.5 -213l-68 -62q-206 183 -495 183t-502 -213t-213 -514.5t213 -514.5t514 -213q258 0 455 159v488h90v-520q-228 -218 -556.5 -218t-568 239.5t-239.5 579z" />
<glyph unicode="H" horiz-adv-x="1150" d="M150 0v1600h90v-793h670v793h90v-1600h-90v717h-670v-717h-90z" />
<glyph unicode="I" d="M170 0v1600h90v-1600h-90z" />
<glyph unicode="J" horiz-adv-x="857" d="M125 259l89 23q0 -88 59.5 -147t142.5 -59t140 56.5t57 139.5q0 8 -1 17v1311h90v-1326q0 -122 -82.5 -205t-203.5 -83t-206 85.5t-85 187.5z" />
<glyph unicode="K" horiz-adv-x="1097" d="M150 0v1600h90v-681l511 681h116l-480 -644l620 -956h-111l-568 884l-88 -109v-775h-90z" />
<glyph unicode="L" horiz-adv-x="950" d="M150 0v1600h90v-1510h620v-90h-710z" />
<glyph unicode="M" horiz-adv-x="1707" d="M150 1600h103l601 -1040l600 1040h103l-4 -7v-1593h-90v1437l-609 -1054l-610 1054v-1437h-90v1593z" />
<glyph unicode="N" horiz-adv-x="1311" d="M150 0v1600h99l822 -1423v1423h90v-1600h-90l-831 1437v-1437h-90z" />
<glyph unicode="O" horiz-adv-x="1892" d="M125 802q0 340 240.5 580.5t580.5 240.5t580.5 -240.5t240.5 -580.5t-240.5 -580.5t-580.5 -240.5t-580.5 240.5t-240.5 580.5zM217 802q0 -302 213.5 -516t515.5 -214t515.5 214t213.5 516t-213.5 515.5t-515.5 213.5t-515.5 -213.5t-213.5 -515.5z" />
<glyph unicode="P" horiz-adv-x="1089" d="M150 0v1600h420q183 -25 311 -153q153 -153 153 -369.5t-153 -369.5t-369 -153h-272v-555h-90zM240 646h272q178 0 304.5 126.5t126.5 305.5t-126.5 305t-304.5 126h-272v-863z" />
<glyph unicode="Q" horiz-adv-x="1892" d="M125 802q0 340 240.5 580.5t580.5 240.5t580.5 -240.5t240.5 -580.5t-240 -580q-174 -174 -399 -222q5 -2 10 -3q73 -20 197 -98q114 -61 154.5 -61t84.5 24q60 35 65 115h91q-10 -134 -122 -197q-54 -31 -99.5 -31t-92.5 13t-157 83q-102 54 -138 64t-75 10t-85 -26 q-74 -42 -96 -123q-4 -12 -5 -24h-91q2 24 9 49q33 116 139 176l20 10q-334 3 -573 242t-239 579zM217 802q0 -302 213.5 -516t515.5 -214t515.5 214t213.5 516t-213.5 515.5t-515.5 213.5t-515.5 -213.5t-213.5 -515.5z" />
<glyph unicode="R" horiz-adv-x="1089" d="M150 0v1600h420q183 -25 311 -153q153 -153 153 -369.5t-153 -369.5q-106 -106 -243 -139l369 -569h-111l-357 556q-13 -1 -27 -1h-272v-555h-90zM240 646h272q178 0 304.5 126.5t126.5 305.5t-126.5 305t-304.5 126h-272v-863z" />
<glyph unicode="S" horiz-adv-x="1042" d="M50 379l85 31q14 -130 119 -235t264.5 -105t272.5 113t113 272.5t-106 265.5t-250 165q-171 57 -270 156t-99 238.5t99 239t239.5 99.5t240.5 -99q55 -53 76 -119l-81 -32q-18 49 -59 90q-73 72 -176 72t-176 -72.5t-73 -176t70.5 -173.5t190.5 -126q192 -62 327 -196.5 t135 -331t-139 -335.5t-335 -139t-335 140q-111 111 -133 258z" />
<glyph unicode="T" horiz-adv-x="1000" d="M50 1510v90h900v-90h-405v-1510h-90v1510h-405z" />
<glyph unicode="U" horiz-adv-x="1345" d="M150 508v1092h91v-1092q0 -178 126.5 -304.5t305.5 -126.5t305 126.5t126 304.5v1092h91v-1150q-25 -183 -153 -311q-153 -153 -369.5 -153t-369.5 153t-153 369z" />
<glyph unicode="V" horiz-adv-x="1291" d="M50 1600h95l500 -1374l500 1374h96l-596 -1637z" />
<glyph unicode="W" horiz-adv-x="1672" d="M125 370v1230h90v-1222q0 -125 90.5 -213.5t214.5 -88.5t214 87q34 34 57 77v1360h90v-1360q23 -43 57 -77q90 -87 214 -87t214.5 88.5t90.5 213.5v1222h90v-1230q-3 -156 -117 -270t-277.5 -114t-279.5 115q-21 20 -37 41q-16 -21 -37 -41q-116 -115 -279.5 -115 t-277.5 114t-117 270z" />
<glyph unicode="X" horiz-adv-x="1218" d="M50 0l507 879l-416 721h103l364 -632l366 632h103l-418 -721l509 -879h-103l-457 790l-456 -790h-102z" />
<glyph unicode="Y" horiz-adv-x="1291" d="M50 1600h103l492 -853l493 853h103l-551 -953v-647h-90v647z" />
<glyph unicode="Z" horiz-adv-x="1327" d="M150 0l872 1510h-872v90h1027l-873 -1510h873v-90h-1027z" />
<glyph unicode="[" horiz-adv-x="560" d="M125 -375v1975h310v-90h-220v-1795h220v-90h-310z" />
<glyph unicode="\" horiz-adv-x="727" d="M-50 1600h103l724 -1600h-102z" />
<glyph unicode="]" horiz-adv-x="560" d="M125 -285h220v1795h-220v90h310v-1975h-310v90z" />
<glyph unicode="^" horiz-adv-x="921" d="M100 1066l309 534h104l308 -534h-104l-256 443l-256 -443h-105z" />
<glyph unicode="_" horiz-adv-x="1050" d="M25 -30h1000v-90h-1000v90z" />
<glyph unicode="`" horiz-adv-x="629" d="M150 1287h166l163 -187h-84z" />
<glyph unicode="a" horiz-adv-x="1360" d="M125 521.5q0 227.5 161 388.5t388 161q277 0 446 -228v139h90v-982h-90v200q-169 -228 -446 -228q-227 0 -388 161t-161 388.5zM220 521q0 -188 133 -320.5t321 -132.5t321 133q100 100 125 231v178q-25 132 -125 232q-133 133 -321 133t-321 -133t-133 -321z" />
<glyph unicode="b" horiz-adv-x="1359" d="M150 0v1600h90v-756q25 34 57 66q161 161 388.5 161t388 -161t160.5 -388.5t-160.5 -388.5t-388 -161t-388.5 161q-32 32 -57 66v-199h-90zM240 427q26 -128 124 -226q133 -133 321 -133t321 132.5t133 320.5t-133 321t-321 133t-321 -133q-98 -98 -124 -227v-188z" />
<glyph unicode="c" horiz-adv-x="1177" d="M90 521.5q0 227.5 161 388.5t389 161q277 0 447 -229l-95 -35q-140 168 -340 168t-333 -132.5t-133 -320.5t133 -321t333 -133t340 168l95 -34q-26 -36 -59 -69q-161 -161 -388.5 -161t-388.5 161t-161 388.5z" />
<glyph unicode="d" horiz-adv-x="1360" d="M125 521.5q0 227.5 161 388.5t388 161q277 0 446 -228v757h90v-1600h-90v200q-169 -228 -446 -228q-227 0 -388 161t-161 388.5zM220 521q0 -188 133 -320.5t321 -132.5t321 133q100 100 125 231v178q-25 132 -125 232q-133 133 -321 133t-321 -133t-133 -321z" />
<glyph unicode="e" horiz-adv-x="1177" d="M90 521.5q0 227.5 161 388.5t372 161q263 0 422 -179l-708 -708q127 -116 302 -116q213 0 353 168l95 -34q-26 -36 -59 -69q-161 -161 -388.5 -161t-388.5 161t-161 388.5zM186 538.5q0 -171.5 90 -288.5l635 635q-117 90 -288 90t-304 -132.5t-133 -304z" />
<glyph unicode="f" horiz-adv-x="523" d="M90 892v90h100v266q6 111 85 191q82 76 189 76q56 0 118 -21l-28 -80q-42 18 -81 18q-71 0 -134 -57q-56 -55 -59 -133v-260h200v-90h-200v-892h-90v892h-100z" />
<glyph unicode="g" horiz-adv-x="1364" d="M125 521.5q0 227.5 161 388t388 160.5q277 0 446 -227v139h90v-763q0 -221 -159 -380t-386.5 -159t-388.5 161q-33 33 -59 69l95 34q140 -168 340 -168t327 127t138 292q-174 -223 -443 -223q-227 0 -388 161t-161 388.5zM220 521q0 -188 133 -321t321 -133t321 133 q97 97 124 225v190q-26 129 -124 227q-133 133 -321 133t-321 -133t-133 -321z" />
<glyph unicode="h" horiz-adv-x="1059" d="M150 0v1600h90v-669q114 110 281 110t276 -109t112 -275v-657h-90v649q0 125 -90.5 213.5t-214.5 88.5t-214 -87q-40 -40 -60 -83v-781h-90z" />
<glyph unicode="i" d="M125 1240.5q0 37.5 26.5 63.5t63.5 26t63.5 -26t26.5 -63.5t-26.5 -63.5t-63.5 -26t-63.5 26t-26.5 63.5zM170 0v982h90v-982h-90z" />
<glyph unicode="j" horiz-adv-x="455" d="M49 -138q121 14 121 136v984h90v-982q0 -211 -211 -228v90zM125 1240.5q0 37.5 26.5 63.5t63.5 26t63.5 -26t26.5 -63.5t-26.5 -63.5t-63.5 -26t-63.5 26t-26.5 63.5z" />
<glyph unicode="k" horiz-adv-x="823" d="M150 0v1400h90v-755l273 337h116l-242 -300l386 -682h-112l-333 610l-88 -109v-501h-90z" />
<glyph unicode="l" horiz-adv-x="390" d="M150 0v1600h90v-1600h-90z" />
<glyph unicode="m" horiz-adv-x="1375" d="M150 0v982h90v-23q84 81 203 81t204 -85q23 -23 40 -50q88 135 247 135q121 0 204 -83.5t87 -198.5v-758h-90v758h1q-4 78 -61.5 135t-140.5 57t-142.5 -59t-59.5 -147v-744h-90v758h1q-4 78 -61.5 135t-140.5 57t-138.5 -55t-62.5 -129v-766h-90z" />
<glyph unicode="n" horiz-adv-x="1071" d="M150 0v982h90v-63q123 122 291.5 122t277.5 -109t112 -275v-657h-90v649q0 125 -90.5 213.5t-214.5 88.5t-214 -87q-49 -49 -72 -101v-763h-90z" />
<glyph unicode="o" horiz-adv-x="1278" d="M90 521.5q0 227.5 161 388.5t388.5 161t388 -161t160.5 -388.5t-160.5 -388.5t-388 -161t-388.5 161t-161 388.5zM185 521q0 -188 133 -320.5t321 -132.5t321 132.5t133 320.5t-133 321t-321 133t-321 -133t-133 -321z" />
<glyph unicode="p" horiz-adv-x="1334" d="M150 -375v1357h90v-138q25 34 57 66q161 160 388.5 160t388 -160.5t160.5 -388t-160.5 -388.5t-388 -161t-388.5 161q-32 32 -57 66v-574h-90zM240 427q26 -129 124 -227q133 -133 321 -133t321 133t133 321t-133 321t-321 133t-321 -133q-98 -98 -124 -227v-188z" />
<glyph unicode="q" horiz-adv-x="1335" d="M100 521.5q0 227.5 161 388t388 160.5q277 0 446 -227v139h90v-1357h-90v575q-169 -228 -446 -228q-227 0 -388 161t-161 388.5zM195 521q0 -188 133 -321t321 -133t321 133q100 100 125 232v178q-25 132 -125 232q-133 133 -321 133t-321 -133t-133 -321z" />
<glyph unicode="r" horiz-adv-x="599" d="M150 0v982h90v-179q28 40 65 77q119 119 244 125v-98q-85 -4 -176 -95q-128 -127 -133 -305v-507h-90z" />
<glyph unicode="s" horiz-adv-x="802" d="M115 249l89 23q0 -88 59.5 -147t142.5 -59t142.5 59t59.5 143t-59 143q-32 32 -129 94q-115 62 -159 106q-69 69 -69 166.5t69 167t166.5 69.5t160.5 -63.5t63 -143.5v-5l-78 -31q-20 152 -146 152q-60 0 -103 -42.5t-43 -103t34 -94.5t115 -85q128 -70 182 -124 q85 -86 85 -206.5t-85 -206t-206 -85.5t-206 85.5t-85 187.5z" />
<glyph unicode="t" horiz-adv-x="670" d="M90 892v90h200v418h90v-418h200v-90h-200v-892h-90v892h-200z" />
<glyph unicode="u" horiz-adv-x="1099" d="M150 370v614h90v-606q0 -125 90.5 -213.5t219 -88.5t219 88.5t90.5 213.5v606h90v-614q-3 -166 -112 -275t-287.5 -109t-287.5 109t-112 275z" />
<glyph unicode="v" horiz-adv-x="1064" d="M50 982h104l378 -818l378 818h104l-482 -1009z" />
<glyph unicode="w" horiz-adv-x="1375" d="M150 268v714h90v-714h-1q4 -78 61.5 -135t140.5 -57t138.5 55t62.5 129v722h90v-700q0 -88 59.5 -147t142.5 -59t140.5 57t61.5 135h-1v714h90v-714q-4 -115 -87 -198.5t-204 -83.5q-155 0 -246 134q-17 -25 -41 -48q-85 -86 -206 -86t-204 83.5t-87 198.5z" />
<glyph unicode="x" horiz-adv-x="871" d="M75 0l312 539l-256 443h104l201 -347l200 347h105l-256 -443l311 -539h-104l-256 443l-256 -443h-105z" />
<glyph unicode="y" horiz-adv-x="1005" d="M75 982h102l326 -704l326 704h101l-649 -1357h-88l265 556z" />
<glyph unicode="z" horiz-adv-x="1000" d="M150 0l507 878h-507v90h662l-508 -878h546v-90h-700z" />
<glyph unicode="{" horiz-adv-x="866" d="M125 572v81q9 -3 20 -3q46 0 123 44q115 66 151 195q19 72 19 134t-10 121t-10 124q0 210 149 294q65 38 136 38q19 0 38 -3v-75q-18 3 -53 3t-84 -27q-75 -43 -97 -126q-15 -55 -15 -105t3 -84q16 -76 16 -149q0 -314 -241 -421q18 -9 35 -18q141 -81 185 -239 q21 -80 21 -159t-16 -155q-3 -34 -3 -84q0 -167 112 -230q51 -28 85.5 -28t51.5 2v-74q-19 -3 -38 -3q-71 0 -136 38q-149 84 -149 297q0 63 10 121.5t10 120.5t-19 134q-36 129 -151 195q-77 44 -123 44q-11 0 -20 -3z" />
<glyph unicode="|" horiz-adv-x="390" d="M150 -375v1975h90v-1975h-90z" />
<glyph unicode="}" horiz-adv-x="866" d="M125 -298q17 -2 51.5 -2t85.5 28q75 42 97 125q15 55 15 105t-3 84q-16 76 -16 155t21 159q44 158 185 239q17 9 35 18q-241 107 -241 421q0 73 16 149q3 34 3 84q0 167 -112 231q-49 27 -84 27t-53 -3v75q19 3 38 3q71 0 136 -38q149 -84 149 -296q0 -63 -10 -122 t-10 -121t19 -134q36 -129 151 -195q77 -44 123 -44q11 0 20 3v-81q-9 3 -20 3q-46 0 -123 -44q-115 -66 -151 -195q-19 -72 -19 -134t10 -120.5t10 -123.5q0 -211 -149 -295q-65 -38 -136 -38q-19 0 -38 3v74z" />
<glyph unicode="~" horiz-adv-x="1277" d="M125 707q2 48 22 97q46 111 157 148q25 8 55 8q106 0 286.5 -104t265.5 -104q15 0 27 3q77 23 108 100q15 38 15 77l91 -14q-4 -48 -23 -97q-46 -111 -156 -148q-25 -8 -56 -8q-105 0 -286.5 104t-265.5 104q-14 0 -26 -3q-77 -23 -108 -100q-15 -39 -16 -77z" />
<glyph unicode="&#xa1;" d="M125 1528.5q0 37.5 26.5 63.5t63.5 26t63.5 -26t26.5 -63.5t-26.5 -63.5t-63.5 -26t-63.5 26t-26.5 63.5zM172 4v1324h90v-1324h-90z" />
<glyph unicode="&#xa2;" horiz-adv-x="1013" d="M99 1061.5q0 184.5 131 315.5q100 100 231 124v161h90v-154q216 -2 361 -192l-87 -33q-111 134 -274 136v-714q163 2 274 136l87 -32q-142 -191 -361 -193v-154h-90v161q-131 23 -231 124q-131 130 -131 314.5zM188 1062q0 -148 105 -252q73 -74 168 -96v696 q-95 -22 -168 -95q-105 -105 -105 -253z" />
<glyph unicode="&#xa3;" horiz-adv-x="1130" d="M100 20q124 110 156 149q108 128 108 292q0 44 -8 94h-228v90h209q-26 95 -75 189q-127 206 -127 363t97 273q111 133 299 133q139 0 257 -99q135 -113 135 -304q0 -63 -22 -114l-86 29q15 43 15 76q0 159 -108 250q-84 70 -190 70q-142 0 -232 -107q-70 -84 -70 -189 q0 -120 79 -286q86 -138 122 -284h197v-90h-180q7 -49 7 -87q0 -204 -170 -405q125 45 221.5 45t181.5 -19.5t169.5 -19.5t155.5 18l17 -89q-81 -20 -169 -20t-184 21.5t-167.5 21.5t-148 -27.5t-174.5 -76.5z" />
<glyph unicode="&#xa4;" horiz-adv-x="1112" d="M100 753l139 139q-89 108 -89 253t89 253l-139 139l64 64l139 -139q108 89 253 89t253 -89l139 139l64 -64l-139 -139q89 -108 89 -253t-89 -253l139 -139l-64 -64l-139 139q-108 -89 -253 -89t-253 89l-139 -139zM240 1145q0 -135 93 -223q88 -93 223 -93q131 0 224 93 q92 92 92 223q0 126 -92 224q-98 92 -224 92q-131 0 -223 -92q-93 -93 -93 -224z" />
<glyph unicode="&#xa5;" horiz-adv-x="1291" d="M50 1600h103l487 -845h10l488 845h103l-489 -845h294v-90h-346l-10 -18v-102h356v-90h-356v-455h-90v455h-354v90h354v102l-10 18h-344v90h292z" />
<glyph unicode="&#xa6;" horiz-adv-x="390" d="M150 -375v849h90v-849h-90zM150 751v849h90v-849h-90z" />
<glyph unicode="&#xa7;" horiz-adv-x="1158" d="M100 1025.5q0 196.5 89 285.5q36 36 61 51q-5 29 -5 61q0 138 99 237.5t239.5 99.5t240.5 -99q55 -53 76 -119l-81 -32q-18 49 -59 90q-73 72 -176 72t-176 -72.5t-73 -176t70.5 -173.5t190.5 -126q192 -62 327 -196.5t135 -331t-89 -285.5q-36 -36 -61 -51q5 -29 5 -61 q0 -138 -99 -237.5t-239.5 -99.5t-240.5 99q-55 53 -76 119l81 32q18 -49 59 -90q73 -72 176 -72t176 72.5t73 176t-70.5 173.5t-190.5 126q-192 62 -327 196.5t-135 331zM188 1025.5q0 -159.5 106 -265.5t250 -165q171 -57 270 -156q43 -43 67 -94q11 14 26 29 q63 63 63 222.5t-106 265.5t-250 165q-171 57 -270 156q-43 43 -67 94q-11 -14 -26 -29q-63 -63 -63 -222.5z" />
<glyph unicode="&#xa8;" horiz-adv-x="730" d="M125 1240.5q0 37.5 26.5 63.5t63.5 26t63.5 -26t26.5 -63.5t-26.5 -63.5t-63.5 -26t-63.5 26t-26.5 63.5zM425 1240.5q0 37.5 26.5 63.5t63.5 26t63.5 -26t26.5 -63.5t-26.5 -63.5t-63.5 -26t-63.5 26t-26.5 63.5z" />
<glyph unicode="&#xa9;" horiz-adv-x="1405" d="M99 603q0 249 176 425t424.5 176t424.5 -176t176 -425t-176 -425t-424.5 -176t-424.5 176t-176 425zM170 603.5q0 -219.5 155 -375t374.5 -155.5t374.5 155.5t155 375t-155 374.5t-374.5 155t-374.5 -155t-155 -374.5zM380 603q0 137 97 234t234 97q170 0 274 -145 l-68 -25q-79 101 -206 101q-108 0 -185 -76.5t-77 -185t77 -185.5t185 -77q127 0 206 101l68 -25q-104 -145 -274 -145q-137 0 -234 97t-97 234z" />
<glyph unicode="&#xaa;" horiz-adv-x="878" d="M100 913v628h31v-597h575v-31h-606zM243 1329q0 112 79 191.5t191.5 79.5t192.5 -79q15 -16 17 -19v55h55v-486h-55v85q-2 -3 -17 -19q-80 -79 -192.5 -79t-191.5 79.5t-79 191.5zM300 1328.5q0 -88.5 62.5 -150.5t151 -62t143.5 54.5t66 115.5v85q-11 62 -66 116.5 t-143.5 54.5t-151 -62.5t-62.5 -151z" />
<glyph unicode="&#xab;" horiz-adv-x="980" d="M100 462l429 460v-104l-331 -356l331 -356v-105zM444 462l436 460v-104l-331 -356l331 -356v-105z" />
<glyph unicode="&#xad;" horiz-adv-x="840" d="M125 547v90h590v-90h-590z" />
<glyph unicode="&#xae;" horiz-adv-x="1161" d="M100 1119q0 199 140.5 340t339.5 141t340 -141t141 -340q0 -290 -279 -435q-88 -46 -201 -46q-200 0 -340.5 141t-140.5 340zM157 1119.5q0 -175.5 124 -300.5q126 -124 300 -124q78 0 149 26l-138 215h-125v-155h-55v644h198q86 -12 151.5 -77.5t65.5 -167t-60.5 -162 t-114.5 -73.5l130 -200q53 30 98 74q124 125 124 300.5t-124 299.5t-299.5 124t-299.5 -124t-124 -299.5zM467 993h116q78 0 133.5 55.5t55.5 133.5t-55.5 133.5t-133.5 55.5h-116v-378z" />
<glyph unicode="&#xaf;" horiz-adv-x="840" d="M125 1237v90h590v-90h-590z" />
<glyph unicode="&#xb0;" horiz-adv-x="762" d="M150 1369q0 96 67.5 163.5t163.5 67.5t163.5 -67.5t67.5 -163.5t-67.5 -163.5t-163.5 -67.5t-163.5 67.5t-67.5 163.5zM221 1369q0 -66 47 -113t113 -47t113 47t47 113t-47 113t-113 47t-113 -47t-47 -113z" />
<glyph unicode="&#xb1;" horiz-adv-x="1050" d="M125 0v90h800v-90h-800zM125 547v90h355v355h90v-355h355v-90h-355v-355h-90v355h-355z" />
<glyph unicode="&#xb4;" horiz-adv-x="629" d="M150 1100l163 187h166l-245 -187h-84z" />
<glyph unicode="&#xb5;" horiz-adv-x="1046" d="M150 -375v1357h90v-731q20 -43 60 -83q90 -87 214 -87t215 89q58 57 79 130v682h88v-982h-88v111l-11 -11q-109 -109 -276 -109t-281 110v-476h-90z" />
<glyph unicode="&#xb6;" horiz-adv-x="1135" d="M51 1168.5q0 216.5 153 369.5q128 128 311 153h80v1h491v-90h-88v-1977h-90v1977h-93v-1977h-90v1021h-152q-216 0 -369 153t-153 369.5z" />
<glyph unicode="&#xb7;" horiz-adv-x="403" d="M125 800q0 32 22.5 54t54 22t54 -22t22.5 -54t-22.5 -54t-54 -22t-54 22t-22.5 54z" />
<glyph unicode="&#xb8;" horiz-adv-x="582" d="M163 -230l41 37q11 -4 34 -6h9q62 0 83 37q6 13 6 22.5t-4 16.5q-25 28 -47 30.5t-45 2.5t-68 -4l57 94h70l-12 -35q144 0 144 -83q0 -25 -21 -66q-36 -69 -149 -69h-16q-52 3 -82 23z" />
<glyph unicode="&#xba;" horiz-adv-x="914" d="M100 913v628h31v-597h575v-31h-606zM243 1329q0 112 79 191.5t192 79.5h29q113 0 192 -79.5t79 -191.5t-79 -191.5t-192 -79.5h-29q-113 0 -192 79.5t-79 191.5zM300 1328.5q0 -88.5 60 -148t169 -64.5q108 5 168 64.5t60 148t-60 148.5t-168 65q-109 -5 -169 -65 t-60 -148.5z" />
<glyph unicode="&#xbb;" horiz-adv-x="980" d="M100 1v105l331 356l-331 356v104l436 -460zM451 1v105l331 356l-331 356v104l429 -460z" />
<glyph unicode="&#xbf;" horiz-adv-x="956" d="M151 412q0 65 35 137q61 127 203 237q117 103 177 229q40 82 40 156t-23 139l83 29q28 -80 28 -171t-49 -191q-80 -167 -241 -289q-162 -157 -162 -286q0 -41 14 -82q35 -98 128 -143q53 -25 100.5 -25t89.5 15q97 34 142 126q25 52 25 105l88 -4v-8q0 -65 -32 -129 q-62 -127 -194 -173q-58 -20 -123 -20t-137 34q-126 61 -172 192q-20 57 -20 122zM540 1528.5q0 37.5 26.5 63.5t63.5 26t63.5 -26t26.5 -63.5t-26.5 -63.5t-63.5 -26t-63.5 26t-26.5 63.5z" />
<glyph unicode="&#xc0;" horiz-adv-x="1291" d="M50 0l596 1637l595 -1637h-95l-223 613h-554l-223 -613h-96zM356 1886h166l163 -187h-84zM402 703h488l-244 671z" />
<glyph unicode="&#xc1;" horiz-adv-x="1291" d="M50 0l596 1637l595 -1637h-95l-223 613h-554l-223 -613h-96zM402 703h488l-244 671zM606 1699l163 187h166l-245 -187h-84z" />
<glyph unicode="&#xc2;" horiz-adv-x="1291" d="M50 0l596 1637l595 -1637h-95l-223 613h-554l-223 -613h-96zM361 1608l229 234h104l238 -234h-104l-186 143l-176 -143h-105zM402 703h488l-244 671z" />
<glyph unicode="&#xc3;" horiz-adv-x="1291" d="M50 0l596 1637l595 -1637h-95l-223 613h-554l-223 -613h-96zM383 1660q27 158 142 158q57 0 123.5 -52.5t115.5 -52.5h5q50 3 70 84h69q-26 -158 -141 -158q-57 0 -123.5 52.5t-115.5 52.5h-5q-50 -3 -70 -84h-70zM402 703h488l-244 671z" />
<glyph unicode="&#xc4;" horiz-adv-x="1291" d="M50 0l596 1637l595 -1637h-95l-223 613h-554l-223 -613h-96zM402 703h488l-244 671zM406 1748.5q0 37.5 26.5 63.5t63.5 26t63.5 -26t26.5 -63.5t-26.5 -63.5t-63.5 -26t-63.5 26t-26.5 63.5zM706 1748.5q0 37.5 26.5 63.5t63.5 26t63.5 -26t26.5 -63.5t-26.5 -63.5 t-63.5 -26t-63.5 26t-26.5 63.5z" />
<glyph unicode="&#xc5;" horiz-adv-x="1291" d="M50 0l564 1549q-31 8 -61 38t-30 80.5t36 86.5t86.5 36t86.5 -36t36 -86.5t-30 -80.5t-60 -38l563 -1549h-95l-223 613h-554l-223 -613h-96zM402 703h488l-244 671zM588 1667.5q0 -23.5 15.5 -39t32.5 -17.5h20q17 3 32 18t15 38.5t-17 40.5t-40.5 17t-40.5 -17 t-17 -40.5z" />
<glyph unicode="&#xc6;" horiz-adv-x="1758" d="M125 0l696 1600h812v-90h-710v-665h710v-90h-710v-665h710v-90h-800v613h-339l-273 -613h-96zM527 703h306v712z" />
<glyph unicode="&#xc7;" horiz-adv-x="1595" d="M125 799.5q0 339.5 239.5 579.5t568 240t562.5 -213l-68 -62q-206 183 -495 183t-502 -213t-213 -514.5t213 -514.5t502 -213t495 183l68 -61q-217 -198 -506 -212l-9 -27q144 0 144 -83q0 -25 -21 -66q-36 -69 -149 -69h-16q-52 3 -82 23l41 37q11 -4 34 -6h9 q62 0 83 37q6 13 6 22.5t-4 16.5q-25 28 -47 30.5t-45 2.5t-68 -4l52 85q-323 10 -557.5 244.5t-234.5 574z" />
<glyph unicode="&#xc8;" horiz-adv-x="1075" d="M150 0v1600h800v-90h-710v-665h710v-90h-710v-665h710v-90h-800zM331 1855h166l163 -187h-84z" />
<glyph unicode="&#xc9;" horiz-adv-x="1075" d="M150 0v1600h800v-90h-710v-665h710v-90h-710v-665h710v-90h-800zM440 1668l163 187h166l-245 -187h-84z" />
<glyph unicode="&#xca;" horiz-adv-x="1075" d="M150 0v1600h800v-90h-710v-665h710v-90h-710v-665h710v-90h-800zM266 1658l229 234h104l238 -234h-104l-186 143l-176 -143h-105z" />
<glyph unicode="&#xcb;" horiz-adv-x="1075" d="M150 0v1600h800v-90h-710v-665h710v-90h-710v-665h710v-90h-800zM310 1758.5q0 37.5 26.5 63.5t63.5 26t63.5 -26t26.5 -63.5t-26.5 -63.5t-63.5 -26t-63.5 26t-26.5 63.5zM610 1758.5q0 37.5 26.5 63.5t63.5 26t63.5 -26t26.5 -63.5t-26.5 -63.5t-63.5 -26t-63.5 26 t-26.5 63.5z" />
<glyph unicode="&#xcc;" d="M-74 1855h166l163 -187h-84zM170 0v1600h90v-1600h-90z" />
<glyph unicode="&#xcd;" d="M170 0v1600h90v-1600h-90zM175 1668l163 187h166l-245 -187h-84z" />
<glyph unicode="&#xce;" d="M-70 1608l229 234h104l238 -234h-104l-186 143l-176 -143h-105zM170 0v1600h90v-1600h-90z" />
<glyph unicode="&#xcf;" d="M-25 1758.5q0 37.5 26.5 63.5t63.5 26t63.5 -26t26.5 -63.5t-26.5 -63.5t-63.5 -26t-63.5 26t-26.5 63.5zM170 0v1600h90v-1600h-90zM275 1758.5q0 37.5 26.5 63.5t63.5 26t63.5 -26t26.5 -63.5t-26.5 -63.5t-63.5 -26t-63.5 26t-26.5 63.5z" />
<glyph unicode="&#xd0;" horiz-adv-x="1284" d="M50 755v90h160v755h90v-2h7q395 0 612 -218q240 -241 240 -580.5t-240 -579.5q-217 -218 -612 -218h-7v-2h-90v755h-160zM300 93h7q356 0 547 192q213 213 213 514.5t-213 515.5q-191 191 -547 191h-7v-661h370v-90h-370v-662z" />
<glyph unicode="&#xd1;" horiz-adv-x="1311" d="M150 0v1600h99l822 -1423v1423h90v-1600h-90l-831 1437v-1437h-90zM393 1660q27 158 142 158q57 0 123.5 -52.5t115.5 -52.5h5q50 3 70 84h69q-26 -158 -141 -158q-57 0 -123.5 52.5t-115.5 52.5h-5q-50 -3 -70 -84h-70z" />
<glyph unicode="&#xd2;" horiz-adv-x="1892" d="M125 802q0 340 240.5 580.5t580.5 240.5t580.5 -240.5t240.5 -580.5t-240.5 -580.5t-580.5 -240.5t-580.5 240.5t-240.5 580.5zM217 802q0 -302 213.5 -516t515.5 -214t515.5 214t213.5 516t-213.5 515.5t-515.5 213.5t-515.5 -213.5t-213.5 -515.5zM727 1855h166 l163 -187h-84z" />
<glyph unicode="&#xd3;" horiz-adv-x="1892" d="M125 802q0 340 240.5 580.5t580.5 240.5t580.5 -240.5t240.5 -580.5t-240.5 -580.5t-580.5 -240.5t-580.5 240.5t-240.5 580.5zM217 802q0 -302 213.5 -516t515.5 -214t515.5 214t213.5 516t-213.5 515.5t-515.5 213.5t-515.5 -213.5t-213.5 -515.5zM836 1668l163 187 h166l-245 -187h-84z" />
<glyph unicode="&#xd4;" horiz-adv-x="1892" d="M125 802q0 340 240.5 580.5t580.5 240.5t580.5 -240.5t240.5 -580.5t-240.5 -580.5t-580.5 -240.5t-580.5 240.5t-240.5 580.5zM217 802q0 -302 213.5 -516t515.5 -214t515.5 214t213.5 516t-213.5 515.5t-515.5 213.5t-515.5 -213.5t-213.5 -515.5zM662 1658l229 234 h104l238 -234h-104l-186 143l-176 -143h-105z" />
<glyph unicode="&#xd5;" horiz-adv-x="1892" d="M125 802q0 340 240.5 580.5t580.5 240.5t580.5 -240.5t240.5 -580.5t-240.5 -580.5t-580.5 -240.5t-580.5 240.5t-240.5 580.5zM217 802q0 -302 213.5 -516t515.5 -214t515.5 214t213.5 516t-213.5 515.5t-515.5 213.5t-515.5 -213.5t-213.5 -515.5zM684 1680 q27 158 142 158q57 0 123.5 -52.5t115.5 -52.5h5q50 3 70 84h69q-26 -158 -141 -158q-57 0 -123.5 52.5t-115.5 52.5h-5q-50 -3 -70 -84h-70z" />
<glyph unicode="&#xd6;" horiz-adv-x="1892" d="M125 802q0 340 240.5 580.5t580.5 240.5t580.5 -240.5t240.5 -580.5t-240.5 -580.5t-580.5 -240.5t-580.5 240.5t-240.5 580.5zM217 802q0 -302 213.5 -516t515.5 -214t515.5 214t213.5 516t-213.5 515.5t-515.5 213.5t-515.5 -213.5t-213.5 -515.5zM706 1758.5 q0 37.5 26.5 63.5t63.5 26t63.5 -26t26.5 -63.5t-26.5 -63.5t-63.5 -26t-63.5 26t-26.5 63.5zM1006 1758.5q0 37.5 26.5 63.5t63.5 26t63.5 -26t26.5 -63.5t-26.5 -63.5t-63.5 -26t-63.5 26t-26.5 63.5z" />
<glyph unicode="&#xd7;" horiz-adv-x="1050" d="M210 341l251 251l-251 251l64 64l251 -251l251 251l63 -64l-251 -251l251 -251l-63 -64l-251 251l-251 -251z" />
<glyph unicode="&#xd8;" horiz-adv-x="1892" d="M125 802q0 340 240.5 580.5t580.5 240.5q165 0 306 -57l86 184l82 -38l-86 -184q103 -56 193 -145q240 -241 240 -581t-240.5 -580.5t-580.5 -240.5q-165 0 -306 57l-86 -184l-82 38l86 184q-103 56 -192 146q-241 240 -241 580zM217 802q0 -302 214 -516 q77 -77 166 -127l616 1324q-123 48 -267 48q-302 0 -515.5 -213.5t-213.5 -515.5zM678 121q124 -49 268 -49q302 0 515.5 214t213.5 516t-213 516q-78 77 -167 126z" />
<glyph unicode="&#xd9;" horiz-adv-x="1345" d="M150 508v1092h91v-1092q0 -178 126.5 -304.5t305.5 -126.5t305 126.5t126 304.5v1092h91v-1150q-25 -183 -153 -311q-153 -153 -369.5 -153t-369.5 153t-153 369zM453 1855h166l163 -187h-84z" />
<glyph unicode="&#xda;" horiz-adv-x="1345" d="M150 508v1092h91v-1092q0 -178 126.5 -304.5t305.5 -126.5t305 126.5t126 304.5v1092h91v-1150q-25 -183 -153 -311q-153 -153 -369.5 -153t-369.5 153t-153 369zM563 1668l163 187h166l-245 -187h-84z" />
<glyph unicode="&#xdb;" horiz-adv-x="1345" d="M150 508v1092h91v-1092q0 -178 126.5 -304.5t305.5 -126.5t305 126.5t126 304.5v1092h91v-1150q-25 -183 -153 -311q-153 -153 -369.5 -153t-369.5 153t-153 369zM388 1608l229 234h104l238 -234h-104l-186 143l-176 -143h-105z" />
<glyph unicode="&#xdc;" horiz-adv-x="1345" d="M150 508v1092h91v-1092q0 -178 126.5 -304.5t305.5 -126.5t305 126.5t126 304.5v1092h91v-1150q-25 -183 -153 -311q-153 -153 -369.5 -153t-369.5 153t-153 369zM433 1748.5q0 37.5 26.5 63.5t63.5 26t63.5 -26t26.5 -63.5t-26.5 -63.5t-63.5 -26t-63.5 26t-26.5 63.5z M733 1748.5q0 37.5 26.5 63.5t63.5 26t63.5 -26t26.5 -63.5t-26.5 -63.5t-63.5 -26t-63.5 26t-26.5 63.5z" />
<glyph unicode="&#xdd;" horiz-adv-x="1291" d="M50 1600h103l492 -853l493 853h103l-551 -953v-647h-90v647zM536 1668l163 187h166l-245 -187h-84z" />
<glyph unicode="&#xde;" horiz-adv-x="1124" d="M150 0v1600h90v-277h330q183 -25 311 -153q153 -153 153 -369.5t-153 -369.5t-369 -153h-272v-278h-90zM240 369h272q178 0 304.5 126.5t126.5 305.5t-126.5 305t-304.5 126h-272v-863z" />
<glyph unicode="&#xe0;" horiz-adv-x="1360" d="M125 521.5q0 227.5 161 388.5t388 161q277 0 446 -228v139h90v-982h-90v200q-169 -228 -446 -228q-227 0 -388 161t-161 388.5zM220 521q0 -188 133 -320.5t321 -132.5t321 133q100 100 125 231v178q-25 132 -125 232q-133 133 -321 133t-321 -133t-133 -321zM448 1287 h166l163 -187h-84z" />
<glyph unicode="&#xe1;" horiz-adv-x="1360" d="M125 521.5q0 227.5 161 388.5t388 161q277 0 446 -228v139h90v-982h-90v200q-169 -228 -446 -228q-227 0 -388 161t-161 388.5zM220 521q0 -188 133 -320.5t321 -132.5t321 133q100 100 125 231v178q-25 132 -125 232q-133 133 -321 133t-321 -133t-133 -321zM558 1100 l163 187h166l-245 -187h-84z" />
<glyph unicode="&#xe2;" horiz-adv-x="1360" d="M125 521.5q0 227.5 161 388.5t388 161q277 0 446 -228v139h90v-982h-90v200q-169 -228 -446 -228q-227 0 -388 161t-161 388.5zM220 521q0 -188 133 -320.5t321 -132.5t321 133q100 100 125 231v178q-25 132 -125 232q-133 133 -321 133t-321 -133t-133 -321zM383 1090 l229 234h104l238 -234h-104l-186 143l-176 -143h-105z" />
<glyph unicode="&#xe3;" horiz-adv-x="1360" d="M125 521.5q0 227.5 161 388.5t388 161q277 0 446 -228v139h90v-982h-90v200q-169 -228 -446 -228q-227 0 -388 161t-161 388.5zM220 521q0 -188 133 -320.5t321 -132.5t321 133q100 100 125 231v178q-25 132 -125 232q-133 133 -321 133t-321 -133t-133 -321zM405 1142 q27 158 142 158q57 0 123.5 -52.5t115.5 -52.5h5q50 3 70 84h69q-26 -158 -141 -158q-57 0 -123.5 52.5t-115.5 52.5h-5q-50 -3 -70 -84h-70z" />
<glyph unicode="&#xe4;" horiz-adv-x="1360" d="M125 521.5q0 227.5 161 388.5t388 161q277 0 446 -228v139h90v-982h-90v200q-169 -228 -446 -228q-227 0 -388 161t-161 388.5zM220 521q0 -188 133 -320.5t321 -132.5t321 133q100 100 125 231v178q-25 132 -125 232q-133 133 -321 133t-321 -133t-133 -321zM428 1240.5 q0 37.5 26.5 63.5t63.5 26t63.5 -26t26.5 -63.5t-26.5 -63.5t-63.5 -26t-63.5 26t-26.5 63.5zM728 1240.5q0 37.5 26.5 63.5t63.5 26t63.5 -26t26.5 -63.5t-26.5 -63.5t-63.5 -26t-63.5 26t-26.5 63.5z" />
<glyph unicode="&#xe5;" horiz-adv-x="1360" d="M125 521.5q0 227.5 150.5 378t340.5 168.5q-19 9 -45 35t-26 76.5t36 86.5t86.5 36t86.5 -36t36 -87q0 -75 -69 -110q245 -19 399 -226v139h90v-982h-90v200q-169 -228 -446 -228q-227 0 -388 161t-161 388.5zM220 521q0 -188 133 -320.5t321 -132.5t321 133 q100 100 125 231v178q-25 132 -125 232q-133 133 -321 133t-321 -133t-133 -321zM610 1179.5q0 -23.5 17 -40.5t40.5 -17t40.5 17t17 40.5t-17 40.5t-40.5 17t-40.5 -17t-17 -40.5z" />
<glyph unicode="&#xe6;" horiz-adv-x="2171" d="M90 521.5q0 227.5 161 388.5t388 161q277 0 446 -228v139h90v-54q155 143 376 143t372.5 -152t157.5 -347l-906 1v-317q21 -29 48 -55q133 -133 321 -133q219 0 364 181l96 -34q-17 -28 -71 -82q-161 -161 -382 -161t-376 143v-115h-90v200q-169 -228 -446 -228 q-227 0 -388 161t-161 388.5zM185 521q0 -188 133 -320.5t321 -132.5t321 133q100 100 125 231v178q-13 69 -45 126.5t-80 105.5q-133 133 -321 133t-321 -133t-133 -321zM1175 663h798q-32 103 -108 179q-133 133 -321 133q-228 0 -369 -188v-124z" />
<glyph unicode="&#xe7;" horiz-adv-x="1177" d="M90 521.5q0 227.5 161 388.5t389 161q277 0 447 -229l-95 -35q-140 168 -340 168t-333 -132.5t-133 -320.5t133 -321t333 -133t340 168l95 -34q-26 -36 -59 -69q-145 -145 -344 -159l-6 -16q145 0 145 -84q0 -25 -15 -52q-28 -53 -70.5 -67.5t-84.5 -14.5h-16 q-52 3 -83 23l42 37q10 -4 34 -6h9q63 0 82 37q7 13 7 22.5t-4 16.5q-26 28 -48 30.5t-44.5 2.5t-67.5 -4l44 74q-207 10 -362.5 165.5t-155.5 383z" />
<glyph unicode="&#xe8;" horiz-adv-x="1266" d="M90 521.5q0 227.5 161 388.5t372 161q263 0 422 -179l-708 -708q127 -116 302 -116q213 0 353 168l95 -34q-26 -36 -59 -69q-161 -161 -388.5 -161t-388.5 161t-161 388.5zM186 538.5q0 -171.5 90 -288.5l635 635q-117 90 -288 90t-304 -132.5t-133 -304zM414 1287h166 l163 -187h-84z" />
<glyph unicode="&#xe9;" horiz-adv-x="1266" d="M90 521.5q0 227.5 161 388.5t372 161q263 0 422 -179l-708 -708q127 -116 302 -116q213 0 353 168l95 -34q-26 -36 -59 -69q-161 -161 -388.5 -161t-388.5 161t-161 388.5zM186 538.5q0 -171.5 90 -288.5l635 635q-117 90 -288 90t-304 -132.5t-133 -304zM523 1100 l163 187h166l-245 -187h-84z" />
<glyph unicode="&#xea;" horiz-adv-x="1266" d="M90 521.5q0 227.5 161 388.5t372 161q263 0 422 -179l-708 -708q127 -116 302 -116q213 0 353 168l95 -34q-26 -36 -59 -69q-161 -161 -388.5 -161t-388.5 161t-161 388.5zM186 538.5q0 -171.5 90 -288.5l635 635q-117 90 -288 90t-304 -132.5t-133 -304zM349 1090 l229 234h104l238 -234h-104l-186 143l-176 -143h-105z" />
<glyph unicode="&#xeb;" horiz-adv-x="1266" d="M90 521.5q0 227.5 161 388.5t372 161q263 0 422 -179l-708 -708q127 -116 302 -116q213 0 353 168l95 -34q-26 -36 -59 -69q-161 -161 -388.5 -161t-388.5 161t-161 388.5zM186 538.5q0 -171.5 90 -288.5l635 635q-117 90 -288 90t-304 -132.5t-133 -304zM393 1240.5 q0 37.5 26.5 63.5t63.5 26t63.5 -26t26.5 -63.5t-26.5 -63.5t-63.5 -26t-63.5 26t-26.5 63.5zM693 1240.5q0 37.5 26.5 63.5t63.5 26t63.5 -26t26.5 -63.5t-26.5 -63.5t-63.5 -26t-63.5 26t-26.5 63.5z" />
<glyph unicode="&#xec;" d="M-74 1287h166l163 -187h-84zM170 0v982h90v-982h-90z" />
<glyph unicode="&#xed;" d="M170 0v982h90v-982h-90zM175 1100l163 187h166l-245 -187h-84z" />
<glyph unicode="&#xee;" d="M-70 1090l229 234h104l238 -234h-104l-186 143l-176 -143h-105zM170 0v982h90v-982h-90z" />
<glyph unicode="&#xef;" d="M-25 1240.5q0 37.5 26.5 63.5t63.5 26t63.5 -26t26.5 -63.5t-26.5 -63.5t-63.5 -26t-63.5 26t-26.5 63.5zM170 0v982h90v-982h-90zM275 1240.5q0 37.5 26.5 63.5t63.5 26t63.5 -26t26.5 -63.5t-26.5 -63.5t-63.5 -26t-63.5 26t-26.5 63.5z" />
<glyph unicode="&#xf0;" horiz-adv-x="1278" d="M90 521.5q0 227.5 161 388.5t388 161q33 0 65 -3l-54 60h-168v90h87l-104 115h128l115 -115h164v-90h-73l158 -157q37 -27 71 -61q160 -161 160 -388.5t-160.5 -388.5t-388 -161t-388.5 161t-161 388.5zM185 521q0 -188 133 -320.5t321 -132.5t321 132.5t133 320.5 t-133 321t-321 133t-321 -133t-133 -321z" />
<glyph unicode="&#xf1;" horiz-adv-x="1071" d="M150 0v982h90v-63q123 122 291.5 122t277.5 -109t112 -275v-657h-90v649q0 125 -90.5 213.5t-214.5 88.5t-214 -87q-49 -49 -72 -101v-763h-90zM273 1142q27 158 142 158q57 0 123.5 -52.5t115.5 -52.5h5q50 3 70 84h69q-26 -158 -141 -158q-57 0 -123.5 52.5 t-115.5 52.5h-5q-50 -3 -70 -84h-70z" />
<glyph unicode="&#xf2;" horiz-adv-x="1278" d="M90 521.5q0 227.5 161 388.5t388.5 161t388 -161t160.5 -388.5t-160.5 -388.5t-388 -161t-388.5 161t-161 388.5zM185 521q0 -188 133 -320.5t321 -132.5t321 132.5t133 320.5t-133 321t-321 133t-321 -133t-133 -321zM420 1287h166l163 -187h-84z" />
<glyph unicode="&#xf3;" horiz-adv-x="1278" d="M90 521.5q0 227.5 161 388.5t388.5 161t388 -161t160.5 -388.5t-160.5 -388.5t-388 -161t-388.5 161t-161 388.5zM185 521q0 -188 133 -320.5t321 -132.5t321 132.5t133 320.5t-133 321t-321 133t-321 -133t-133 -321zM529 1100l163 187h166l-245 -187h-84z" />
<glyph unicode="&#xf4;" horiz-adv-x="1278" d="M90 521.5q0 227.5 161 388.5t388.5 161t388 -161t160.5 -388.5t-160.5 -388.5t-388 -161t-388.5 161t-161 388.5zM185 521q0 -188 133 -320.5t321 -132.5t321 132.5t133 320.5t-133 321t-321 133t-321 -133t-133 -321zM355 1090l229 234h104l238 -234h-104l-186 143 l-176 -143h-105z" />
<glyph unicode="&#xf5;" horiz-adv-x="1278" d="M90 521.5q0 227.5 161 388.5t388.5 161t388 -161t160.5 -388.5t-160.5 -388.5t-388 -161t-388.5 161t-161 388.5zM185 521q0 -188 133 -320.5t321 -132.5t321 132.5t133 320.5t-133 321t-321 133t-321 -133t-133 -321zM377 1142q27 158 142 158q57 0 123.5 -52.5 t115.5 -52.5h5q50 3 70 84h69q-26 -158 -141 -158q-57 0 -123.5 52.5t-115.5 52.5h-5q-50 -3 -70 -84h-70z" />
<glyph unicode="&#xf6;" horiz-adv-x="1278" d="M90 521.5q0 227.5 161 388.5t388.5 161t388 -161t160.5 -388.5t-160.5 -388.5t-388 -161t-388.5 161t-161 388.5zM185 521q0 -188 133 -320.5t321 -132.5t321 132.5t133 320.5t-133 321t-321 133t-321 -133t-133 -321zM399 1240.5q0 37.5 26.5 63.5t63.5 26t63.5 -26 t26.5 -63.5t-26.5 -63.5t-63.5 -26t-63.5 26t-26.5 63.5zM699 1240.5q0 37.5 26.5 63.5t63.5 26t63.5 -26t26.5 -63.5t-26.5 -63.5t-63.5 -26t-63.5 26t-26.5 63.5z" />
<glyph unicode="&#xf7;" horiz-adv-x="1050" d="M125 569v90h800v-90h-800zM435 413.5q0 37.5 26.5 63.5t63.5 26t63.5 -26t26.5 -63.5t-26.5 -63.5t-63.5 -26t-63.5 26t-26.5 63.5zM435 813.5q0 37.5 26.5 63.5t63.5 26t63.5 -26t26.5 -63.5t-26.5 -63.5t-63.5 -26t-63.5 26t-26.5 63.5z" />
<glyph unicode="&#xf8;" horiz-adv-x="1278" d="M90 522.5q0 227.5 161 388.5t388 161q129 0 237 -52l122 212l79 -41l-125 -216q40 -28 76 -64q160 -161 160 -388.5t-160.5 -388.5t-388.5 -161q-129 0 -236 52l-123 -213l-79 38l126 220q-40 28 -76 64q-161 161 -161 388.5zM185 522q0 -188 133 -320q27 -28 57 -49 l452 784q-86 39 -188 39q-188 0 -321 -133t-133 -321zM451 108q86 -39 188 -39q188 0 321 132.5t133 320.5t-133 321q-27 27 -56 48z" />
<glyph unicode="&#xf9;" horiz-adv-x="1099" d="M150 370v614h90v-606q0 -125 90.5 -213.5t219 -88.5t219 88.5t90.5 213.5v606h90v-614q-3 -166 -112 -275t-287.5 -109t-287.5 109t-112 275zM330 1287h166l163 -187h-84z" />
<glyph unicode="&#xfa;" horiz-adv-x="1099" d="M150 370v614h90v-606q0 -125 90.5 -213.5t219 -88.5t219 88.5t90.5 213.5v606h90v-614q-3 -166 -112 -275t-287.5 -109t-287.5 109t-112 275zM440 1100l163 187h166l-245 -187h-84z" />
<glyph unicode="&#xfb;" horiz-adv-x="1099" d="M150 370v614h90v-606q0 -125 90.5 -213.5t219 -88.5t219 88.5t90.5 213.5v606h90v-614q-3 -166 -112 -275t-287.5 -109t-287.5 109t-112 275zM265 1090l229 234h104l238 -234h-104l-186 143l-176 -143h-105z" />
<glyph unicode="&#xfc;" horiz-adv-x="1099" d="M150 370v614h90v-606q0 -125 90.5 -213.5t219 -88.5t219 88.5t90.5 213.5v606h90v-614q-3 -166 -112 -275t-287.5 -109t-287.5 109t-112 275zM310 1240.5q0 37.5 26.5 63.5t63.5 26t63.5 -26t26.5 -63.5t-26.5 -63.5t-63.5 -26t-63.5 26t-26.5 63.5zM610 1240.5 q0 37.5 26.5 63.5t63.5 26t63.5 -26t26.5 -63.5t-26.5 -63.5t-63.5 -26t-63.5 26t-26.5 63.5z" />
<glyph unicode="&#xfd;" horiz-adv-x="1005" d="M75 982h102l326 -704l326 704h101l-649 -1357h-88l265 556zM393 1100l163 187h166l-245 -187h-84z" />
<glyph unicode="&#xfe;" horiz-adv-x="1334" d="M129 -358v1758h90v-551q24 32 53 61q161 160 388.5 160t388 -160.5t160.5 -388t-160.5 -388.5t-388 -161t-388.5 161q-29 29 -53 61v-552h-90zM219 409q29 -118 120 -209q133 -133 321 -133t321 133t133 321t-133 321t-321 133t-321 -133q-91 -91 -120 -209v-224z" />
<glyph unicode="&#xff;" horiz-adv-x="1005" d="M75 982h102l326 -704l326 704h101l-649 -1357h-88l265 556zM263 1240.5q0 37.5 26.5 63.5t63.5 26t63.5 -26t26.5 -63.5t-26.5 -63.5t-63.5 -26t-63.5 26t-26.5 63.5zM563 1240.5q0 37.5 26.5 63.5t63.5 26t63.5 -26t26.5 -63.5t-26.5 -63.5t-63.5 -26t-63.5 26 t-26.5 63.5z" />
<glyph unicode="&#x152;" horiz-adv-x="2295" d="M90 802q0 340 240.5 580.5t580.5 240.5q138 0 259 -23h1000v-90h-840q86 -52 162 -127q225 -226 239 -538h439v-90h-439q-16 -310 -239 -533q-79 -79 -168 -132h846v-90h-1000q-121 -19 -259 -19q-340 0 -580.5 240.5t-240.5 580.5zM182 802q0 -302 213.5 -516 t515.5 -214t507 206q222 222 222 524t-213 516q-113 112 -245 162.5t-271 50.5q-302 0 -515.5 -213.5t-213.5 -515.5z" />
<glyph unicode="&#x153;" horiz-adv-x="2127" d="M90 521.5q0 227.5 161 388.5t388 161q258 0 431 -208q165 208 430 208q228 0 379.5 -152t157.5 -347l-851 1q2 -26 2 -52q0 -142 -63 -258q146 -195 375 -195q219 0 364 181l96 -34q-17 -28 -71 -82q-161 -161 -389 -161q-265 0 -430 208q-173 -208 -431 -208 q-227 0 -388 161t-161 388.5zM185 521q0 -188 133 -320.5t321 -132.5t321 132.5t133 320.5t-133 321t-321 133t-321 -133t-133 -321zM1126 779q29 -55 45 -116h758q-32 103 -108 179q-133 133 -321 133t-321 -133q-30 -30 -53 -63z" />
<glyph unicode="&#x178;" horiz-adv-x="1291" d="M50 1600h103l492 -853l493 853h103l-551 -953v-647h-90v647zM406 1758.5q0 37.5 26.5 63.5t63.5 26t63.5 -26t26.5 -63.5t-26.5 -63.5t-63.5 -26t-63.5 26t-26.5 63.5zM706 1758.5q0 37.5 26.5 63.5t63.5 26t63.5 -26t26.5 -63.5t-26.5 -63.5t-63.5 -26t-63.5 26 t-26.5 63.5z" />
<glyph unicode="&#x2c6;" horiz-adv-x="811" d="M121 1090l229 234h104l238 -234h-104l-186 143l-176 -143h-105z" />
<glyph unicode="&#x2dc;" horiz-adv-x="825" d="M150 1142q27 158 142 158q57 0 123.5 -52.5t115.5 -52.5h5q50 3 70 84h69q-26 -158 -141 -158q-57 0 -123.5 52.5t-115.5 52.5h-5q-50 -3 -70 -84h-70z" />
<glyph unicode="&#x2000;" horiz-adv-x="946" />
<glyph unicode="&#x2001;" horiz-adv-x="1892" />
<glyph unicode="&#x2002;" horiz-adv-x="946" />
<glyph unicode="&#x2003;" horiz-adv-x="1892" />
<glyph unicode="&#x2004;" horiz-adv-x="630" />
<glyph unicode="&#x2005;" horiz-adv-x="473" />
<glyph unicode="&#x2006;" horiz-adv-x="315" />
<glyph unicode="&#x2007;" horiz-adv-x="315" />
<glyph unicode="&#x2008;" horiz-adv-x="236" />
<glyph unicode="&#x2009;" horiz-adv-x="378" />
<glyph unicode="&#x200a;" horiz-adv-x="105" />
<glyph unicode="&#x2010;" horiz-adv-x="840" d="M125 547v90h590v-90h-590z" />
<glyph unicode="&#x2011;" horiz-adv-x="840" d="M125 547v90h590v-90h-590z" />
<glyph unicode="&#x2012;" horiz-adv-x="840" d="M125 547v90h590v-90h-590z" />
<glyph unicode="&#x2013;" horiz-adv-x="871" d="M50 547v90h771v-90h-771z" />
<glyph unicode="&#x2014;" horiz-adv-x="1507" d="M50 547v90h1407v-90h-1407z" />
<glyph unicode="&#x2018;" horiz-adv-x="280" d="M50 1366q0 29 7 47l98 198h65l-57 -150q23 -5 45 -27t22 -59.5t-26.5 -63.5t-63.5 -26t-63.5 26t-26.5 55z" />
<glyph unicode="&#x2019;" horiz-adv-x="280" d="M50 1521.5q0 37.5 26.5 63.5t63.5 26t63.5 -26t26.5 -55t-7 -47l-98 -198h-65l57 150q-23 5 -45 27t-22 59.5z" />
<glyph unicode="&#x201a;" horiz-adv-x="280" d="M50 73.5q0 37.5 26.5 63.5t63.5 26t63.5 -26t26.5 -55t-7 -47l-98 -198h-65l57 150q-23 5 -45 27t-22 59.5z" />
<glyph unicode="&#x201c;" horiz-adv-x="532" d="M50 1366q0 29 7 47l98 198h65l-57 -150q23 -5 45 -27t22 -59.5t-26.5 -63.5t-63.5 -26t-63.5 26t-26.5 55zM302 1366q0 29 7 47l98 198h65l-57 -150q23 -5 45 -27t22 -59.5t-26.5 -63.5t-63.5 -26t-63.5 26t-26.5 55z" />
<glyph unicode="&#x201d;" horiz-adv-x="532" d="M50 1521.5q0 37.5 26.5 63.5t63.5 26t63.5 -26t26.5 -55t-7 -47l-98 -198h-65l57 150q-23 5 -45 27t-22 59.5zM302 1521.5q0 37.5 26.5 63.5t63.5 26t63.5 -26t26.5 -55t-7 -47l-98 -198h-65l57 150q-23 5 -45 27t-22 59.5z" />
<glyph unicode="&#x201e;" horiz-adv-x="532" d="M50 73.5q0 37.5 26.5 63.5t63.5 26t63.5 -26t26.5 -55t-7 -47l-98 -198h-65l57 150q-23 5 -45 27t-22 59.5zM302 73.5q0 37.5 26.5 63.5t63.5 26t63.5 -26t26.5 -55t-7 -47l-98 -198h-65l57 150q-23 5 -45 27t-22 59.5z" />
<glyph unicode="&#x2022;" horiz-adv-x="2934" d="M150 -60q36 18 36 24v180q0 22 -34 32q88 42 126 68q18 -2 22 -52v-2q14 6 26 12l116 42q8 -42 18 -76q22 -75 22 -126q0 -106 -164 -250q52 96 52 179q0 22 -11 83.5t-23 87.5q-36 -26 -36 -54v-116q0 -20 40 -30q-32 -10 -67.5 -31.5t-51.5 -21.5q-36 0 -71 51z M216 1092v28q224 62 294 146q74 106 174 106h8q132 0 132 -78q0 -24 -20 -48v-8q22 -126 112 -126l-70 302q24 0 84 90l252 302h546q28 -22 252 -330q56 -60 56 -90v-14l-50 -182l14 -42l-28 -42h8q118 48 118 132v8q-20 24 -20 48q0 78 132 78h8q104 0 210 -140 q68 -56 258 -112v-28q-20 0 -20 -14l6 -8v-6q-6 -28 -42 -28h-14l-216 -14q-32 28 -106 28l-62 28l-8 -22q26 -84 120 -84l20 -6q78 6 78 20v8l-14 20v8l28 -14l34 6h112l42 8l22 -8v-14q0 -40 -204 -70l-126 8v-22q114 -34 190 -34h42v-8q-52 -70 -162 -70h-28 q-70 0 -160 36v-8q0 -36 160 -90q0 -28 -76 -36q-44 0 -190 64q0 -34 70 -92l-20 -14l-134 42v-6l22 -56l-28 -8q-38 0 -134 126l-62 -308v-6h-742q-38 0 -84 294q-74 -94 -120 -106l-28 8l22 62h-8q-86 -42 -132 -42l-14 22q70 42 70 84h-8q-128 -64 -188 -64q-70 8 -70 36 q160 54 160 90v8h-6q-72 -36 -154 -36h-28q-110 0 -162 70v8h42q76 0 190 34v22l-140 -8q-190 34 -190 70v14h14v8l50 -8h112l28 -6l34 14v-8l-14 -20v-8q0 -14 70 -20q148 12 148 104l-8 8q-52 -28 -140 -36q0 -10 -28 -20l-216 14h-14q-36 0 -42 28l6 20zM426 1098l14 -14 h90l22 22v14h-14v6l-112 -20v-8zM453 -159q1 67 69 97q-8 22 -8 26v180q0 22 -34 32q88 42 126 68q18 -2 22 -52v-220q2 -17 13 -17t33 19v170q0 22 -34 32q88 42 126 68q18 -2 22 -52v-180q0 -51 -79 -87t-125 -36h-5q-55 0 -55 -48q0 -36 37 -36t74 21.5t60.5 21.5t40 -8 t25 -25t8.5 -28.5t-9 -24.5q-16 -16 -28.5 -16t-30 10t-26.5 29.5t-12.5 19.5t-10.5 -7q-53 -53 -103 -53q-16 0 -32 6q-64 23 -64 88v2zM524 860h90q90 0 126 78v48h-6l-112 -48q0 -14 -78 -42l-20 -22v-14zM692 1316l20 -42l70 28v20h-90v-6zM698 1042l8 -6h28l14 14 l-22 48h-14zM706 798l6 -8v-6q112 40 112 126v6h-6q-64 -42 -112 -112v-6zM776 966h20l14 14v14q0 10 -28 20l-6 -6v-42zM798 -60l27 15q9 5 9 9v180q0 22 -34 32q86 42 126 68q18 -2 22 -52v-2q12 6 26 12l86 42q2 -8 19 -29t21 -29q18 8 38 16l86 42q0 -8 26 -41t26 -51 v-180q0 -19 36 -29v201q0 22 -34 32q88 42 126 68q14 -30 28 -52q12 4 24 10l114 42q8 -42 24 -94.5t16 -82t-12 -53.5q-28 -60 -84 -89t-88 -37v-58q0 -6 4 -15t36 -15q-32 -12 -66.5 -33.5t-50.5 -21.5q-37 0 -73 53q36 14 36 22v121q-31 -11 -62.5 -30.5t-50 -19.5 t-37.5 37v144q-4 30 -34 70q-10 -14 -14 -38v-132q0 -20 40 -30q-32 -10 -65.5 -30.5t-44.5 -20.5q-26 0 -44 37v144q-4 30 -34 70q-18 -14 -18 -38v-132q0 -17 22 -30q-74 -53 -105.5 -53t-66.5 51zM832 762h6l64 22v76h-8q-62 -32 -62 -98zM852 938l22 -22h6l14 14v8 l-20 20h-8l-14 -14v-6zM936 762l8 -6v-8q28 10 42 36v28l-14 14l-36 -36v-28zM936 888l8 -6h6l14 14l-14 14zM950 1448h22q192 228 238 302q-22 0 -22 20h-6q-112 -112 -112 -154q-120 -132 -120 -168zM964 1350h8l6 -6h8q0 34 90 132l162 224l-14 14l-64 -84 q-174 -216 -196 -280zM1006 1176q68 -454 196 -490l-188 510h-8v-20zM1020 1344l224 -644h406q92 254 190 608l-70 112q-162 250 -162 274h-336l-252 -344v-6zM1182 504l28 -8l146 70v8q0 14 -84 28q-34 0 -90 -92v-6zM1238 962v6q64 152 64 204q-42 90 -42 126 q34 182 182 182h4q178 0 178 -182q0 -34 -50 -140v-8l70 -188h-406zM1258 658l14 -14h308l70 6v8h-392zM1430 81q0 -35 14 -59t36 -24q28 4 30 36q-4 32 -19 57t-27 51q-34 -26 -34 -61zM1546 566l154 -70l20 8v6q-36 68 -84 92q-90 -14 -90 -28v-8zM1592 -60q36 18 36 24 v384q0 22 -34 34q88 42 125 53q19 -29 43 -57q-20 -4 -20 -22v-160q8 4 18 8l114 42q8 -42 19 -76q22 -68 22 -103.5t-30.5 -102t-118.5 -132.5q42 81 42 128t-14 102.5t-26 81.5q-18 -12 -26 -26v-146q0 -20 40 -30q-32 -10 -67.5 -31.5t-51.5 -21.5q-36 0 -71 51z M1630 1708l182 -288q56 -84 90 -84l28 22l-258 384zM1706 1742q194 -256 232 -286v6q-174 262 -232 302v-22zM1720 728h8q98 0 168 448q-6 48 -22 48q-42 -56 -154 -462v-34zM1902 806q0 -26 56 -58l8 8v34l-50 42q-14 0 -14 -26zM1927 31q0 111 145 171l116 42 q6 -42 22.5 -94.5t16.5 -82t-13 -53.5q-28 -60 -93.5 -94t-105.5 -34h-8q-41 4 -67 72q-13 38 -13 73zM1938 896l14 -14l14 14l-22 14l-6 -8v-6zM2000 784l64 -22h6v8q0 56 -62 90h-8v-76zM2008 930l14 -14h6l22 22v6l-14 14h-8l-20 -20v-8zM2046 81q0 -35 14 -59t38 -24 q28 4 28 36q-4 32 -19 57t-27 51q-34 -26 -34 -61zM2078 910q0 -86 112 -126l6 6v14q-48 70 -112 112h-6v-6zM2092 980l14 -14h20v34l-20 22l-14 -14v-28zM2120 1302l70 -28l20 42v6h-90v-20zM2148 1056l20 -20h22l14 14l-14 48h-22q-20 -6 -20 -42zM2162 966 q0 -90 118 -106h98v14q-26 30 -98 56q0 20 -84 36l-28 20h-6v-20zM2222 -60q36 18 36 24v180q0 22 -34 32q88 42 126 68q18 -2 22 -52v-2q28 12 142 54q8 -42 19 -76q22 -68 22 -122q0 -113 -165 -254q52 96 52 179q0 22 -11 83.5t-23 87.5q-34 -26 -34 -54h-2v-116 q0 -20 40 -30q-30 -10 -65.5 -31.5t-51.5 -21.5q-37 0 -73 51zM2350 1106l22 -22h90l14 14v8l-104 20l-22 -6v-14zM2561 132q0 46 37 64q6 2 10 4v66q0 64 38 112t128 54q-52 -56 -52 -158v-86q24 10 44 22q9 -20 9 -40q0 -46 -37 -64q-8 -4 -16 -4v-88q3 -31 26 -31 q14 0 36 11q-26 -54 -76 -91q-17 -12 -48 -12t-88 49q36 18 36 24v148q-18 -8 -38 -20q-9 20 -9 40z" />
<glyph unicode="&#x2026;" horiz-adv-x="2148" d="M100 75.5q0 37.5 26.5 63.5t63.5 26t63.5 -26t26.5 -63.5t-26.5 -63.5t-63.5 -26t-63.5 26t-26.5 63.5zM783 75.5q0 37.5 26.5 63.5t63.5 26t63.5 -26t26.5 -63.5t-26.5 -63.5t-63.5 -26t-63.5 26t-26.5 63.5zM1466 75.5q0 37.5 26.5 63.5t63.5 26t63.5 -26t26.5 -63.5 t-26.5 -63.5t-63.5 -26t-63.5 26t-26.5 63.5z" />
<glyph unicode="&#x202f;" horiz-adv-x="378" />
<glyph unicode="&#x2039;" horiz-adv-x="629" d="M100 462l429 460v-104l-331 -356l331 -356v-105z" />
<glyph unicode="&#x203a;" horiz-adv-x="629" d="M100 1v105l331 356l-331 356v104l429 -460z" />
<glyph unicode="&#x205f;" horiz-adv-x="473" />
<glyph unicode="&#x20ac;" horiz-adv-x="1450" d="M100 585l18 90h150v120h-126l18 90h108v166q0 227 161 388t388.5 161t387.5 -161l-67 -67q-133 132 -321 132t-321 -132.5t-133 -320.5v-166h657l-18 -90h-639v-120h615l-18 -90h-597v-64q0 -188 133 -320.5t321 -132.5t321 133q82 82 114 185h98q-34 -142 -145 -253 q-160 -161 -387.5 -161t-388.5 161t-161 388v64h-168z" />
<glyph unicode="&#x2122;" horiz-adv-x="1251" d="M100 1556v52h453l267 -409l266 409h65l-9 -13v-643h-56v556l-266 -410l-267 410v-556h-56v604h-158v-604h-57v604h-182z" />
<glyph unicode="&#xe000;" horiz-adv-x="980" d="M0 0v980h980v-980h-980z" />
</font>
</defs>
</svg>
