<?xml version="1.0" standalone="no"?>
<!DOCTYPE svg PUBLIC "-//W3C//DTD SVG 1.1//EN" "http://www.w3.org/Graphics/SVG/1.1/DTD/svg11.dtd" >
<svg xmlns="http://www.w3.org/2000/svg">
<metadata></metadata>
<defs>
<font id="CaviarDreamsBold" horiz-adv-x="1259" >
<font-face units-per-em="2048" ascent="1638" descent="-410" />
<missing-glyph horiz-adv-x="708" />
<glyph horiz-adv-x="2048" />
<glyph horiz-adv-x="2048" />
<glyph unicode="&#xd;" horiz-adv-x="708" />
<glyph unicode=" "  horiz-adv-x="708" />
<glyph unicode="&#x09;" horiz-adv-x="708" />
<glyph unicode="&#xa0;" horiz-adv-x="708" />
<glyph unicode="!" horiz-adv-x="460" d="M125 91.5q0 43.5 31 74t74 30.5t74 -30.5t31 -74t-31 -74t-74 -30.5t-74 30.5t-31 74zM165 254v1262h126v-1262h-126z" />
<glyph unicode="&#x22;" horiz-adv-x="593" d="M125 917v596h127v-596h-127zM341 917v596h127v-596h-127z" />
<glyph unicode="#" horiz-adv-x="1598" d="M125 529l32 127h410l41 167h-409l32 127h409l102 410h129l-103 -410h167l102 410h128l-102 -410h409l-32 -127h-409l-42 -167h410l-33 -127h-409l-102 -409h-128l102 409h-166l-102 -409h-129l103 409h-410zM695 656h166l42 167h-167z" />
<glyph unicode="$" horiz-adv-x="992" d="M100 446l119 43q13 -126 82.5 -195t137.5 -76v609q-86 38 -160.5 112.5t-74.5 194.5t78.5 199t156.5 88v152h127v-155q69 -12 126 -68t84 -137l-112 -45q-22 59 -52.5 89t-45.5 34v-384q116 -45 221.5 -149.5t105.5 -269t-107.5 -271.5t-219.5 -121v-131h-127v130 q-120 9 -218.5 107.5t-120.5 243.5zM328 1135q0 -70 42.5 -112.5t68.5 -57.5v331q-24 -4 -67.5 -47.5t-43.5 -113.5zM566 221q60 9 132 81.5t72 186.5t-72.5 186.5t-131.5 99.5v-554z" />
<glyph unicode="%" horiz-adv-x="1180" d="M80 927.5q0 97.5 68.5 166t166 68.5t166 -68.5t68.5 -166t-68.5 -166t-166 -68.5t-166 68.5t-68.5 166zM103 66l870 1242l105 -72l-870 -1242zM204 927q0 -46 32 -78t78 -32t78.5 32t32.5 78t-32.5 78.5t-78.5 32.5t-78 -32.5t-32 -78.5zM632 375.5q0 97.5 68.5 166 t166 68.5t166 -68.5t68.5 -166t-68.5 -166t-166 -68.5t-166 68.5t-68.5 166zM756 375q0 -46 32 -78t78 -32t78.5 32t32.5 78t-32.5 78.5t-78.5 32.5t-78 -32.5t-32 -78.5z" />
<glyph unicode="&#x26;" horiz-adv-x="1257" d="M75 441q0 190 132 330q90 97 179 127q-18 7 -92 86t-74 216t97.5 235t236 98t236.5 -97q55 -52 82 -138l-114 -45q-59 156 -204 156q-85 0 -146 -60.5t-61 -147t60 -150.5t111 -83.5t152 -20.5v-120l-86 -3q-192 -36 -288 -140.5t-96 -242.5t97.5 -235.5t235 -97.5 t235.5 98q57 57 74 108q-64 43 -121 102q-42 38 -57.5 46.5t-27.5 8.5q-39 0 -52 -23t-13 -34q0 -61 65 -61q15 0 63 6l-13 -118q-40 -11 -74.5 -11t-74.5 22q-63 35 -83 109q-7 26 -7 61t25 79q53 94 162 94q47 0 88 -23.5t102 -86.5q50 -47 73 -59.5t41 -12.5q64 0 92 49 q13 24 13 42q0 62 -49 91q-21 11 -44 11t-74 -14l-2 127q45 13 87 13t94 -29q79 -45 104 -134q8 -31 8 -73.5t-30 -93.5q-56 -99 -170 -112q-27 -89 -110 -172q-134 -135 -323.5 -135t-324 134t-134.5 324z" />
<glyph unicode="'" horiz-adv-x="377" d="M125 917v596h127v-596h-127z" />
<glyph unicode="(" horiz-adv-x="707" d="M100 757.5q0 412.5 192 652.5q125 157 315 223v-127q-132 -61 -229 -183q-162 -204 -162 -565.5t162 -565.5q97 -122 229 -186v-123q-190 66 -315 223q-192 239 -192 651.5z" />
<glyph unicode=")" horiz-adv-x="707" d="M100 6q132 64 229 186q162 204 162 565.5t-162 565.5q-97 122 -229 183v127q190 -66 314 -223q193 -240 193 -652.5t-193 -651.5q-124 -157 -314 -223v123z" />
<glyph unicode="*" horiz-adv-x="818" d="M128 1096l170 119l-170 119l73 104l145 -101v176h126v-175l144 100l73 -104l-170 -119l170 -119l-73 -104l-144 101v-176h-126v177l-145 -102z" />
<glyph unicode="+" horiz-adv-x="1030" d="M125 503v127h327v327h126v-327h327v-127h-327v-326h-126v326h-327z" />
<glyph unicode="," horiz-adv-x="421" d="M10 -201l107 398h204l-191 -398h-120z" />
<glyph unicode="-" horiz-adv-x="837" d="M125 503v127h587v-127h-587z" />
<glyph unicode="." horiz-adv-x="410" d="M100 91.5q0 43.5 31 74t74 30.5t74 -30.5t31 -74t-31 -74t-74 -30.5t-74 30.5t-31 74z" />
<glyph unicode="/" horiz-adv-x="729" d="M-50 0l686 1516h143l-687 -1516h-142z" />
<glyph unicode="0" horiz-adv-x="1206" d="M76 501v488q0 218 154.5 372.5t373 154.5t372.5 -154.5t154 -372.5v-488q0 -218 -154 -372.5t-372.5 -154.5t-373 154.5t-154.5 372.5zM207 501q0 -164 116 -279t280 -115t280 115t116 279v488q0 164 -116 279.5t-280 115.5t-280 -115.5t-116 -279.5v-488z" />
<glyph unicode="1" horiz-adv-x="1302" d="M532 1327l147 189h90v-1516h-127v1327h-110z" />
<glyph unicode="2" horiz-adv-x="1220" d="M151 1129q25 163 132 271q135 136 326 136t326 -135t135 -325.5t-132 -332.5q-87 -94 -204.5 -182t-260.5 -195t-172 -239h769v-127h-915q47 319 203 435.5t272 204t212.5 193t96.5 242.5t-96.5 233.5t-233 96.5t-226.5 -90t-105 -232z" />
<glyph unicode="3" horiz-adv-x="1220" d="M151 387l127 46q15 -142 105 -232t226.5 -90t233 96.5t96.5 233.5t-95 241t-286 140l-89 2v126q103 1 153.5 20.5t110 82.5t59.5 148.5t-60 145t-144 59.5q-143 0 -202 -157l-119 47q28 89 83 142q99 98 238.5 98t237.5 -99t98 -237t-74.5 -218t-84.5 -84 q81 -27 173 -125q132 -142 132 -332.5t-135 -325.5t-326 -135t-326 136q-107 108 -132 271z" />
<glyph unicode="4" horiz-adv-x="1238" d="M173 431l633 1085h117v-959h141v-126h-141v-431h-127v431h-623zM393 557h403v679z" />
<glyph unicode="5" horiz-adv-x="1219" d="M117 217l90 99q89 -133 230 -175q63 -20 142.5 -20t171.5 49q152 81 202 245q19 63 19 142.5t-49 172.5q-81 151 -246 209q-71 24 -170.5 24t-250.5 -48l-87 76l173 477v48h504v-127h-397l-116 -318q4 2 64 13.5t141 11.5t178 -33q216 -74 321 -272q66 -123 66 -228 t-25 -187q-66 -215 -265 -322q-120 -64 -225 -64q-305 0 -471 227z" />
<glyph unicode="6" horiz-adv-x="1207" d="M73 464q10 354 159.5 563t367.5 453q13 15 31 36h170q-47 -59 -68 -83q-241 -269 -382 -470q58 66 266 66t362 -154.5t154 -373t-154 -373t-372.5 -154.5t-370 152t-156.5 338h-7zM211 501q0 -164 115.5 -279t279.5 -115t280 115t116 279t-116 280t-280 116t-279.5 -116 t-115.5 -280z" />
<glyph unicode="7" horiz-adv-x="1220" d="M153 0q10 354 159.5 563.5t365 450.5t244.5 375h-768v127h912q-7 -270 -250.5 -543t-383 -471t-149.5 -502h-130z" />
<glyph unicode="8" horiz-adv-x="1211" d="M107 440.5q0 190.5 132 332.5q91 98 173 125q-11 4 -85.5 84t-74.5 218t98 237t239 99h33q141 0 239 -99t98 -237t-74.5 -218t-85.5 -84q82 -27 173 -125q132 -142 132 -332.5t-134.5 -325.5t-326.5 -135h-75q-191 0 -326 135t-135 325.5zM237 441q0 -137 97 -233.5 t234 -96.5q17 0 36 2h4q18 -2 35 -2q137 0 234 96.5t97 233.5t-94 239.5t-274 138.5q-181 -36 -275 -138.5t-94 -239.5zM385 1201.5q0 -85.5 59 -148.5t96.5 -77t65.5 -19q27 5 64.5 19t96.5 77t59 148.5t-59.5 145t-144.5 59.5q-7 0 -14 -1h-5q-7 1 -14 1 q-85 0 -144.5 -59.5t-59.5 -145z" />
<glyph unicode="9" horiz-adv-x="1207" d="M73 988.5q0 218.5 154 373t372.5 154.5t370 -151.5t157.5 -337.5h6q-10 -355 -159.5 -564t-367.5 -453q-12 -14 -31 -36h-170q48 59 68 83q241 269 382 470q-58 -66 -266 -66t-362 154.5t-154 373zM204 989q0 -164 116 -280t280 -116t280 116t116 280t-116 279.5 t-280 115.5t-280 -115.5t-116 -279.5z" />
<glyph unicode=":" horiz-adv-x="460" d="M125 91.5q0 43.5 31 74t74 30.5t74 -30.5t31 -74t-31 -74t-74 -30.5t-74 30.5t-31 74zM125 659q0 44 31 74t74 30t74 -30t31 -74t-31 -74t-74 -30t-74 30t-31 74z" />
<glyph unicode=";" horiz-adv-x="519" d="M83 -201l107 398h204l-191 -398h-120zM128 659q0 44 31 74t74 30t74 -30t31 -74t-31 -74t-74 -30t-74 30t-31 74z" />
<glyph unicode="&#x3c;" horiz-adv-x="1343" d="M100 540l1143 416v-135l-772 -281l772 -281v-135z" />
<glyph unicode="=" horiz-adv-x="1030" d="M125 356v127h780v-127h-780zM125 650v127h780v-127h-780z" />
<glyph unicode="&#x3e;" horiz-adv-x="1343" d="M100 124v135l773 281l-773 281v135l1143 -416z" />
<glyph unicode="?" horiz-adv-x="946" d="M127 1114v29q0 65 32 128q61 125 191 170q57 20 121 20t135 -34q124 -60 169 -189q20 -56 20 -120t-35 -135q-58 -121 -192 -225q-104 -92 -157 -204q-35 -71 -35 -134.5t27 -140.5l-118 -41q-34 98 -34 186t47 184q76 159 228 273q83 81 112 141t29 100t-12 74 q-29 82 -106 119q-44 21 -83.5 21t-74.5 -13q-139 -48 -139 -215zM227 91.5q0 43.5 31 74t74 30.5t74 -30.5t31 -74t-31 -74t-74 -30.5t-74 30.5t-31 74z" />
<glyph unicode="@" horiz-adv-x="1560" d="M125 526q0 270 192.5 462.5t463.5 192.5t462.5 -192.5t191.5 -463.5q0 -123 -90 -264t-205 -141q-14 0 -27 2q-96 20 -104 113v20q-80 -84 -227.5 -84t-252.5 105t-105 251.5t105 251.5t252.5 105t227.5 -84v72h119v-614q9 -22 28 -22q29 0 95.5 94.5t66.5 194.5 q0 222 -157.5 380t-379.5 158t-379 -158t-157 -380t157 -378.5t379 -156.5q152 0 234 51l84 -88q-139 -82 -318 -82q-270 0 -463 192.5t-193 462.5zM548 527q0 -98 68.5 -167t166 -69t156 58.5t72.5 119.5v116q-14 61 -62 109q-69 70 -166.5 70t-166 -69.5t-68.5 -167.5z " />
<glyph unicode="A" d="M50 0l580 1592l579 -1592h-135l-205 564h-479l-205 -564h-135zM437 691h386l-193 531z" />
<glyph unicode="B" horiz-adv-x="1044" d="M150 0v1516h247v1h36q123 0 209.5 -87t86.5 -210.5t-90 -198.5q66 -14 162 -119q153 -154 153 -372.5t-148.5 -372t-326.5 -156.5v-1h-329zM277 127h202q122 8 233 123t111 279t-116 280t-280 116h-150v-798zM277 1057h176q61 6 107 48.5t46 115.5t-49.5 120.5 t-123.5 47.5h-156v-332z" />
<glyph unicode="C" horiz-adv-x="1540" d="M125 757.5q0 321.5 227 548.5t538 227t550 -217l-95 -87q-198 176 -455 176t-446.5 -189.5t-189.5 -458t189.5 -458t446.5 -189.5t455 176l95 -85q-239 -218 -550 -218t-538 226.5t-227 548z" />
<glyph unicode="D" horiz-adv-x="1167" d="M150 0v1516h127v-2q361 -4 563 -207q227 -228 227 -549.5t-227 -548.5q-202 -203 -563 -207v-2h-127zM277 130q303 0 482 179.5t179 448t-189 458.5q-169 170 -472 170v-1256z" />
<glyph unicode="E" horiz-adv-x="1055" d="M150 0v1516h780v-127h-653v-568h653v-126h-653v-568h653v-127h-780z" />
<glyph unicode="F" horiz-adv-x="963" d="M150 0v1516h688v-127h-561v-568h561v-126h-561v-695h-127z" />
<glyph unicode="G" horiz-adv-x="1565" d="M125 757.5q0 321.5 227 548.5t538 227t550 -217l-95 -87q-198 176 -455 176t-446.5 -189.5t-189.5 -458t189.5 -458t456.5 -189.5q230 0 397 135v460h127v-509q-223 -213 -534 -213t-538 226.5t-227 548z" />
<glyph unicode="H" horiz-adv-x="1126" d="M150 0v1516h127v-730h572v730h127v-1516h-127v660h-572v-660h-127z" />
<glyph unicode="I" horiz-adv-x="467" d="M170 0v1516h127v-1516h-127z" />
<glyph unicode="J" horiz-adv-x="855" d="M125 277l126 33q0 -100 48 -148t115.5 -48t113.5 45.5t46 112.5q0 6 -1 15v1229h127v-1242q0 -121 -82.5 -204t-203 -83t-205 85t-84.5 205z" />
<glyph unicode="K" horiz-adv-x="1090" d="M150 0v1516h127v-583l437 583h161l-458 -615l584 -901h-155l-512 798l-57 -71v-727h-127z" />
<glyph unicode="L" horiz-adv-x="937" d="M150 0v1516h127v-1389h570v-127h-697z" />
<glyph unicode="M" horiz-adv-x="1670" d="M150 1516h145l541 -935l539 935h145l-19 -34v-1482h-127v1262l-538 -932l-540 932v-1262h-126v1482z" />
<glyph unicode="N" horiz-adv-x="1274" d="M150 0v1516h126l721 -1249v1249h127v-1516h-117l-730 1262v-1262h-127z" />
<glyph unicode="O" horiz-adv-x="1805" d="M125 760q0 322 227.5 549.5t549.5 227.5t550 -227.5t228 -549.5t-228 -549.5t-550 -227.5t-549.5 227.5t-227.5 549.5zM254 760q0 -269 190 -459.5t458.5 -190.5t458.5 190.5t190 459.5t-190 459t-458.5 190t-458.5 -190t-190 -459z" />
<glyph unicode="P" horiz-adv-x="1062" d="M150 0v1516h410q177 -24 300 -147q147 -147 147 -355.5t-147 -355.5t-355 -147h-228v-511h-127zM277 638h228q155 0 265 110t110 265.5t-110 265t-265 109.5h-228v-750z" />
<glyph unicode="Q" horiz-adv-x="1805" d="M125 760q0 322 227.5 549.5t549.5 227.5t550 -227.5t228 -549.5t-228 -549q-164 -165 -307 -195l126 -68q99 -53 131 -53t66 19q46 26 51 109h128q-9 -157 -125 -223q-54 -31 -100.5 -31t-92.5 13t-150 78q-91 49 -121.5 57t-62 8t-68.5 -21q-74 -42 -84 -138h-127 q14 173 149 249l-63 -32q-224 2 -450.5 228.5t-226.5 548.5zM254 760q0 -269 190 -459.5t458.5 -190.5t458.5 190.5t190 459.5t-190 459t-458.5 190t-458.5 -190t-190 -459z" />
<glyph unicode="R" horiz-adv-x="1062" d="M150 0v1516h410q177 -24 300 -147q147 -147 147 -355.5t-147 -355.5q-102 -102 -204 -127l345 -531h-155l-341 511h-228v-511h-127zM277 638h228q155 0 265 110t110 265.5t-110 265t-265 109.5h-228v-750z" />
<glyph unicode="S" horiz-adv-x="1013" d="M50 385l121 44q16 -139 106.5 -230t228 -91t235 97.5t97.5 235.5t-92.5 230.5t-220.5 144.5q-162 54 -258 150.5t-96 233.5t97.5 235t236 98t236.5 -97q55 -52 82 -138l-115 -45q-56 156 -203 156q-86 0 -146.5 -60.5t-60.5 -146.5t60 -146t166 -109q180 -58 309.5 -187 t129.5 -319t-134.5 -324t-324 -134t-323.5 135q-107 107 -131 267z" />
<glyph unicode="T" horiz-adv-x="972" d="M50 1389v127h872v-127h-373v-1389h-126v1389h-373z" />
<glyph unicode="U" horiz-adv-x="1305" d="M150 489v1027h128v-1027q0 -154 110 -264t265.5 -110t265 110t109.5 264v1027h127v-1081q-24 -178 -147 -301q-147 -147 -355.5 -147t-355.5 147.5t-147 354.5z" />
<glyph unicode="V" d="M50 1516h134l445 -1222l444 1222h136l-580 -1592z" />
<glyph unicode="W" horiz-adv-x="1602" d="M125 362v1154h127v-1146q0 -106 76.5 -181t182 -75t181.5 74q29 28 46 60v1268h127v-1268q17 -32 45 -60q77 -74 182 -74t181.5 75t76.5 181v1146h127v-1154q-3 -152 -114 -263.5t-270.5 -111.5t-272.5 112l-19 17l-19 -17q-113 -112 -272.5 -112t-270.5 111.5 t-114 263.5z" />
<glyph unicode="X" horiz-adv-x="1205" d="M50 0l479 831l-395 685h145l322 -559l324 559h146l-397 -685l481 -831h-146l-408 705l-406 -705h-145z" />
<glyph unicode="Y" horiz-adv-x="1272" d="M50 1516h146l440 -763l440 763h146l-523 -905v-611h-127v611z" />
<glyph unicode="Z" horiz-adv-x="1321" d="M150 0l802 1389h-786v127h1005l-803 -1389h787v-127h-1005z" />
<glyph unicode="[" horiz-adv-x="579" d="M125 -345v1861h329v-127h-202v-1607h202v-127h-329z" />
<glyph unicode="\" horiz-adv-x="729" d="M-50 1516h143l686 -1516h-142z" />
<glyph unicode="]" horiz-adv-x="579" d="M125 -218h202v1607h-202v127h329v-1861h-329v127z" />
<glyph unicode="^" horiz-adv-x="939" d="M100 981l310 535h121l309 -535h-147l-223 385l-223 -385h-147z" />
<glyph unicode="_" horiz-adv-x="1014" d="M25 16h964v-126h-964v126z" />
<glyph unicode="`" horiz-adv-x="716" d="M150 1228h228l188 -216h-133z" />
<glyph unicode="a" horiz-adv-x="1317" d="M125 501.5q0 218.5 154.5 373t373 154.5t387.5 -165v83h127v-947h-127v139q-169 -165 -387.5 -165t-373 154.5t-154.5 373zM256 501q0 -164 116 -279t280 -115t280 115q87 88 108 200v159q-21 113 -108 200q-116 116 -280 116t-280 -116t-116 -280z" />
<glyph unicode="b" horiz-adv-x="1316" d="M150 0v1516h127v-650q169 163 387.5 163t372.5 -154.5t154 -373t-154 -373t-372.5 -154.5t-387.5 164v-138h-127zM277 417q22 -109 107 -195q116 -115 280 -115t280 115t116 279t-116 280t-280 116t-280 -116q-85 -85 -107 -195v-169z" />
<glyph unicode="c" horiz-adv-x="1154" d="M90 501.5q0 218.5 154.5 373t373 154.5t373.5 -154q31 -32 73 -89l-129 -48q-23 28 -38 44q-116 115 -279.5 115t-279.5 -115.5t-116 -279.5t116 -279.5t291.5 -115.5t305.5 158l129 -46q-42 -59 -73 -90q-155 -155 -373.5 -155t-373 154.5t-154.5 373z" />
<glyph unicode="d" horiz-adv-x="1317" d="M125 501.5q0 218.5 154.5 373t373 154.5t387.5 -165v652h127v-1516h-127v139q-169 -165 -387.5 -165t-373 154.5t-154.5 373zM256 501q0 -164 116 -279t280 -115t280 115q87 88 108 200v159q-21 113 -108 200q-116 116 -280 116t-280 -116t-116 -280z" />
<glyph unicode="e" horiz-adv-x="1154" d="M90 501.5q0 218.5 154.5 373t357.5 154.5q235 0 389 -154q8 -9 30 -33l-650 -650q94 -85 246 -85q188 0 318 158l129 -46q-42 -59 -73 -90q-155 -155 -373.5 -155t-373 154.5t-154.5 373zM222 516.5q0 -149.5 63 -231.5l549 549q-82 63 -231 63t-265 -115.5t-116 -265z " />
<glyph unicode="f" horiz-adv-x="534" d="M90 821v126h92v224q6 111 85 191q82 76 189 76q55 0 137 -28l-41 -117q-56 24 -100 24t-96 -46q-45 -44 -47 -107v-217h184v-126h-184v-821h-127v821h-92z" />
<glyph unicode="g" horiz-adv-x="1321" d="M125 501.5q0 218.5 154.5 372.5t373 154t387.5 -164v83h127v-724q0 -212 -152.5 -364.5t-371 -152.5t-373.5 154q-31 32 -73 90l129 46q23 -27 38 -42q116 -116 279.5 -116t274 110.5t115.5 182.5l-7 -2q-155 -155 -373.5 -155t-373 154.5t-154.5 373zM256 501 q0 -164 116 -279.5t280 -115.5t280 116q84 84 107 193v171q-22 110 -107 195q-116 116 -280 116t-280 -116t-116 -280z" />
<glyph unicode="h" horiz-adv-x="1042" d="M150 0v1516h127v-586q74 72 236.5 72t269 -107t109.5 -268v-627h-127v619q0 106 -76.5 181t-181.5 75t-182 -74q-33 -34 -48 -65v-736h-127z" />
<glyph unicode="i" horiz-adv-x="460" d="M125 1163.5q0 43.5 31 74t74 30.5t74 -30.5t31 -74t-31 -74t-74 -30.5t-74 30.5t-31 74zM166 0v947h127v-947h-127z" />
<glyph unicode="j" horiz-adv-x="479" d="M49 -85q111 13 111 105v927h127v-925q0 -214 -238 -234v127zM119 1163.5q0 43.5 31 74t74 30.5t74 -30.5t31 -74t-31 -74t-74 -30.5t-74 30.5t-31 74z" />
<glyph unicode="k" horiz-adv-x="833" d="M150 0v1332h127v-654l218 269h164l-242 -300l366 -647h-154l-297 544l-55 -69v-475h-127z" />
<glyph unicode="l" horiz-adv-x="427" d="M150 0v1516h127v-1516h-127z" />
<glyph unicode="m" horiz-adv-x="1333" d="M150 0v947h127v9q46 45 164.5 45t203.5 -85l21 -21l22 21q85 85 205.5 85t203 -83t86.5 -198v-720h-127v741q-2 41 -48.5 87t-114 46t-116 -48t-48.5 -120v-706h-126v741h-1q-2 41 -48.5 87t-114 46t-112.5 -44.5t-50 -103.5v-726h-127z" />
<glyph unicode="n" horiz-adv-x="1053" d="M150 0v947h127v-27q82 82 246 82t270.5 -107t109.5 -268v-627h-126v619q0 106 -77 181t-182 75t-182 -74q-42 -42 -59 -82v-719h-127z" />
<glyph unicode="o" horiz-adv-x="1234" d="M90 501.5q0 218.5 154.5 373t373 154.5t372.5 -154.5t154 -373t-154 -373t-372.5 -154.5t-373 154.5t-154.5 373zM221 501q0 -164 116 -279t280 -115t280 115t116 279t-116 280t-280 116t-280 -116t-116 -280z" />
<glyph unicode="p" horiz-adv-x="1291" d="M150 -345v1292h127v-81q169 162 387.5 162t372.5 -154t154 -372.5t-154 -373t-372.5 -154.5t-387.5 164v-483h-127zM277 417q22 -110 107 -195q116 -116 280 -116t280 115.5t116 279.5t-116 280t-280 116t-280 -116q-85 -85 -107 -195v-169z" />
<glyph unicode="q" horiz-adv-x="1292" d="M100 501.5q0 218.5 154.5 372.5t373 154t387.5 -164v83h127v-1292h-127v484q-169 -165 -387.5 -165t-373 154.5t-154.5 373zM231 501q0 -164 116 -279.5t280 -115.5t280 116q87 87 108 200v159q-21 113 -108 200q-116 116 -280 116t-280 -116t-116 -280z" />
<glyph unicode="r" horiz-adv-x="611" d="M150 0v947h127v-116q138 132 284 139v-135q-91 -4 -168 -82q-112 -110 -116 -265v-488h-127z" />
<glyph unicode="s" horiz-adv-x="799" d="M115 268l126 33q0 -101 48 -148.5t115.5 -47.5t116 47.5t48.5 116t-38 106t-125 93.5q-107 58 -150 101q-70 69 -70 168t70 169.5t168.5 70.5t163 -65t64.5 -148v-19l-112 -45q-12 91 -40.5 120t-75 29t-79.5 -32.5t-33 -79t27 -74t99 -72.5q120 -65 172 -117 q84 -86 84 -206t-84.5 -205t-205 -85t-205 85t-84.5 205z" />
<glyph unicode="t" horiz-adv-x="675" d="M90 821v126h184v385h127v-385h184v-126h-184v-821h-127v821h-184z" />
<glyph unicode="u" horiz-adv-x="1079" d="M150 362v587h127v-579q0 -106 76.5 -181t186 -75t186 75t76.5 181v579h127v-587q-3 -162 -109.5 -268.5t-280 -106.5t-280 106.5t-109.5 268.5z" />
<glyph unicode="v" horiz-adv-x="1057" d="M50 947h145l333 -722l334 722h145l-479 -1001z" />
<glyph unicode="w" horiz-adv-x="1333" d="M150 268v679h127v-700q2 -41 48.5 -87t114 -46t112.5 44.5t51 103.5v685h126v-666q0 -71 48.5 -119t116 -48t114 46t48.5 87v700h127v-679q-4 -115 -86.5 -198t-203 -83t-226.5 106q-107 -106 -227.5 -106t-203 83t-86.5 198z" />
<glyph unicode="x" horiz-adv-x="889" d="M75 0l300 518l-248 429h146l172 -297l172 297h147l-248 -429l299 -518h-147l-223 386l-223 -386h-147z" />
<glyph unicode="y" horiz-adv-x="1007" d="M75 947h143l286 -617l286 617h141l-618 -1292h-129l254 534z" />
<glyph unicode="z" horiz-adv-x="1004" d="M150 0l466 808h-450v127h669l-467 -808h486v-127h-704z" />
<glyph unicode="{" horiz-adv-x="861" d="M165 529v113q36 0 102 38q146 83 146 300q0 39 -9.5 93t-9.5 116q0 205 148 289q65 38 136 38q20 0 57 -6v-114q-40 7 -68.5 7t-78.5 -29q-82 -45 -82 -205q0 -26 3 -55q15 -71 15 -141q0 -273 -192 -388q192 -113 192 -387q0 -70 -15 -141q-3 -29 -3 -73t15.5 -101.5 t67 -86t79.5 -28.5t67 5v-112q-37 -6 -57 -6q-71 0 -136 38q-148 84 -148 292q0 60 9.5 113.5t9.5 108.5q0 201 -146 284q-66 38 -102 38z" />
<glyph unicode="|" horiz-adv-x="427" d="M150 -345v1861h127v-1861h-127z" />
<glyph unicode="}" horiz-adv-x="861" d="M165 -227q39 -5 67 -5t79.5 28.5t67 86t15.5 101.5t-2 73q-15 71 -15 141q0 274 192 387q-192 115 -192 388q0 70 15 141q2 29 2 73t-15.5 101.5t-66 86t-79 28.5t-68.5 -7v114q38 6 57 6q71 0 136 -38q148 -83 148 -291q0 -60 -9 -114t-9 -109t16 -118q31 -110 129 -166 q66 -38 102 -38v-113q-36 0 -102 -38q-98 -56 -129 -166q-16 -63 -16 -118t9 -108.5t9 -115.5q0 -207 -148 -290q-65 -38 -136 -38q-19 0 -57 6v112z" />
<glyph unicode="~" horiz-adv-x="1241" d="M125 654q3 67 23 116q46 111 158 149q26 8 57 8q103 0 269.5 -95.5t238.5 -95.5q11 0 19 2q97 29 97 167l129 -20q-15 -208 -181 -265q-27 -8 -59 -8q-102 0 -269 95.5t-238 95.5q-11 0 -19 -2q-96 -29 -98 -167z" />
<glyph unicode="&#xa1;" horiz-adv-x="460" d="M125 1428q0 44 31 74.5t74 30.5t74 -30.5t31 -74.5t-31 -74t-74 -30t-74 30t-31 74zM168 4v1262h127v-1262h-127z" />
<glyph unicode="&#xa2;" horiz-adv-x="1005" d="M99 998.5q0 178.5 127 305.5q97 97 206 117v152h127v-142q153 -2 278 -127q25 -26 67 -81l-122 -47q-105 128 -223 129v-612q118 1 223 129l122 -45q-42 -57 -67 -83q-125 -125 -278 -127v-142h-127v152q-109 19 -206 117q-127 126 -127 304.5zM225 999q0 -127 90 -216 q63 -64 117 -76v585q-54 -13 -117 -76q-90 -90 -90 -217z" />
<glyph unicode="&#xa3;" horiz-adv-x="1112" d="M100 43q129 114 157 149q95 111 95 254q0 45 -5 65h-213v126h186q-16 58 -59 141q-120 194 -120 346t95 266q108 129 291 129q136 0 251 -97q132 -111 132 -296q0 -63 -30 -132l-120 40q20 57 20 85q0 135 -81 203t-171 68q-121 0 -188.5 -81t-67.5 -169q0 -105 70 -253 q81 -129 110 -250h186v-126h-162q3 -37 3 -58q0 -196 -108 -325q41 15 133 15t170 -18t153.5 -18t160.5 22l24 -125q-98 -24 -181.5 -24t-171.5 19.5t-151 19.5t-104 -14q-94 -35 -199 -87z" />
<glyph unicode="&#xa4;" horiz-adv-x="1101" d="M100 715l129 129q-74 90 -74 231.5t74 231.5l-129 129l90 90l129 -129q90 74 231.5 74t231.5 -74l129 129l90 -90l-129 -129q74 -90 74 -231.5t-74 -231.5l129 -129l-90 -90l-129 129q-90 -74 -231.5 -74t-231.5 74l-129 -129zM282 1086q0 -126 79 -200q74 -79 177.5 -79 t172.5 53q16 11 30 25t25 30q53 69 53 160q0 135 -108 216q-69 53 -161 53q-105 0 -189 -78q-79 -79 -79 -180z" />
<glyph unicode="&#xa5;" horiz-adv-x="1272" d="M50 1516h146l439 -762l441 762h146l-450 -777h254v-127h-327v-67h327v-126h-327v-419h-127v419h-326v126h326v67h-326v127h253z" />
<glyph unicode="&#xa6;" horiz-adv-x="427" d="M150 -345v825h127v-825h-127zM150 691v825h127v-825h-127z" />
<glyph unicode="&#xa7;" horiz-adv-x="1125" d="M100 965.5q0 189.5 88 278.5q35 35 48 42q-3 14 -3 45q0 136 97.5 234t236 98t236.5 -97q55 -53 82 -138l-114 -46q-58 156 -204 156q-85 0 -146 -60t-61 -146t60.5 -146t165.5 -109q181 -59 310 -187.5t129 -318.5t-88 -278q-35 -35 -47 -43q2 -14 2 -45 q0 -136 -97.5 -234t-236 -98t-236.5 97q-55 53 -82 139l115 45q22 -62 57 -96q60 -60 146 -60t146.5 60.5t60.5 146.5t-60 145.5t-166 109.5q-180 58 -309.5 187t-129.5 318.5zM225 965.5q0 -137.5 92.5 -230.5t220.5 -145q162 -54 256 -149q43 -42 51 -60l4 1 q51 51 51 188.5t-92.5 230.5t-220.5 145q-161 54 -256 149q-42 42 -51 60h-4q-51 -52 -51 -189.5z" />
<glyph unicode="&#xa8;" horiz-adv-x="736" d="M125 1163.5q0 43.5 31 74t74 30.5t74 -30.5t31 -74t-31 -74t-74 -30.5t-74 30.5t-31 74zM401 1163.5q0 43.5 31 74t74 30.5t74 -30.5t31 -74t-31 -74t-74 -30.5t-74 30.5t-31 74z" />
<glyph unicode="&#xa9;" horiz-adv-x="1353" d="M99 577q0 238 168.5 406.5t406 168.5t406 -168.5t168.5 -406.5t-168.5 -406.5t-406 -168.5t-406 168.5t-168.5 406.5zM208 577q0 -193 136.5 -329.5t329 -136.5t329 136.5t136.5 329.5t-136.5 329t-329 136t-329 -136t-136.5 -329zM358 577q0 135 95.5 230.5t230.5 95.5 t231 -95q20 -20 56 -71l-105 -38q-74 97 -182 97q-90 0 -154.5 -64t-64.5 -154.5t64.5 -155t154.5 -64.5q108 0 182 97l105 -39q-36 -50 -56 -70q-96 -96 -231 -96t-230.5 96t-95.5 231z" />
<glyph unicode="&#xaa;" horiz-adv-x="868" d="M100 840v622h73v-550h529v-72h-602zM232 1245q0 112 79 191.5t191.5 79.5t170.5 -62v22h95v-491h-95v28q-58 -40 -170.5 -40t-191.5 80t-79 192zM328 1244.5q0 -72.5 51 -123t123.5 -50.5t117.5 44.5t53 91.5v74q-8 49 -53 93.5t-117.5 44.5t-123.5 -51t-51 -123.5z" />
<glyph unicode="&#xab;" horiz-adv-x="970" d="M100 447l447 479v-160l-297 -319l297 -319v-161zM416 447l454 478v-159l-297 -319l297 -319v-160z" />
<glyph unicode="&#xad;" horiz-adv-x="837" d="M125 503v127h587v-127h-587z" />
<glyph unicode="&#xae;" horiz-adv-x="1128" d="M100 1051.5q0 192.5 135.5 328.5t328 136t328.5 -136t136 -328q0 -280 -269 -420q-85 -45 -194 -45q-194 0 -329.5 136t-135.5 328.5zM196 1052q0 -152 108 -261q51 -50 93.5 -69.5t78.5 -29t96 -9.5t96 14l-105 164h-81v-102h-95v596h206q88 -12 154 -78t66 -168.5 t-61 -164t-87 -67.5l92 -140q28 16 67 54q108 109 108 261t-108 260t-260 108t-260 -108t-108 -260zM482 958h84q63 0 107.5 44.5t44.5 107t-44.5 107t-107.5 44.5h-84v-303z" />
<glyph unicode="&#xaf;" horiz-adv-x="837" d="M125 1138v127h587v-127h-587z" />
<glyph unicode="&#xb0;" horiz-adv-x="769" d="M150 1281.5q0 97.5 68.5 166t166 68.5t166 -68.5t68.5 -166t-68.5 -166t-166 -68.5t-166 68.5t-68.5 166zM259 1281.5q0 -51.5 37 -88.5t88.5 -37t88.5 37t37 88.5t-37 88.5t-88.5 37t-88.5 -37t-37 -88.5z" />
<glyph unicode="&#xb1;" horiz-adv-x="1030" d="M125 0v127h780v-127h-780zM125 503v127h327v327h126v-327h327v-127h-327v-326h-126v326h-327z" />
<glyph unicode="&#xb4;" horiz-adv-x="716" d="M150 1012l188 216h228l-283 -216h-133z" />
<glyph unicode="&#xb5;" horiz-adv-x="1030" d="M150 -345v1292h127v-689q15 -32 48 -66q77 -73 182 -73t182 75q49 48 66 107v646h125v-947h-125v71q-79 -79 -241.5 -79t-236.5 71v-408h-127z" />
<glyph unicode="&#xb6;" horiz-adv-x="1096" d="M51 1097q0 208 147 356q123 123 300 147h53v1h496v-127h-81v-1819h-127v1819h-41v-1819h-127v939h-118q-208 0 -355 147.5t-147 355.5z" />
<glyph unicode="&#xb7;" horiz-adv-x="435" d="M125 758q0 39 27 65.5t65 26.5t65.5 -26.5t27.5 -65.5t-27.5 -65.5t-65.5 -26.5t-65 26.5t-27 65.5z" />
<glyph unicode="&#xb8;" horiz-adv-x="619" d="M163 -192l69 62q19 -8 37 -9h7q45 0 57 22q1 2 1 6t-7 15q-9 13 -43.5 13t-117.5 -7l81 134h108l-11 -32q81 0 110 -50q13 -24 13 -50.5t-15 -56.5q-30 -57 -75 -72.5t-88 -15.5h-15q-55 3 -111 41z" />
<glyph unicode="&#xba;" horiz-adv-x="901" d="M100 840v622h73v-550h529v-72h-602zM232 1245q0 112 79 191.5t192 79.5h27q113 0 192 -79.5t79 -191.5t-79 -192t-192 -80h-27q-113 0 -192 80t-79 192zM328 1244.5q0 -72.5 49 -121t140 -52.5q90 4 138.5 52.5t48.5 121t-48.5 121t-138.5 53.5q-91 -5 -140 -53.5 t-49 -121z" />
<glyph unicode="&#xbb;" horiz-adv-x="970" d="M100 -32v160l296 319l-296 319v159l453 -478zM423 -33v161l296 319l-296 319v160l447 -479z" />
<glyph unicode="&#xbf;" horiz-adv-x="946" d="M151 401.5q0 64.5 34 135.5q59 121 193 225q104 91 157 203q35 71 35 135t-28 141l118 41q35 -98 35 -186t-48 -185q-76 -158 -227 -273q-83 -81 -112 -141t-29 -99q0 -137 118 -193q44 -21 83.5 -21t74.5 12q139 50 139 215l125 -5v-29q0 -65 -32 -128 q-61 -125 -191 -171q-57 -19 -121 -19t-135 33q-124 60 -169 190q-20 55 -20 119.5zM509 1428q0 44 31 74.5t74 30.5t73.5 -30.5t30.5 -74.5t-30.5 -74t-73.5 -30t-74 30t-31 74z" />
<glyph unicode="&#xc0;" d="M50 0l580 1592l579 -1592h-135l-205 564h-479l-205 -564h-135zM298 1879h228l188 -216h-133zM437 691h386l-193 531z" />
<glyph unicode="&#xc1;" d="M50 0l580 1592l579 -1592h-135l-205 564h-479l-205 -564h-135zM437 691h386l-193 531zM545 1663l188 216h228l-283 -216h-133z" />
<glyph unicode="&#xc2;" d="M50 0l580 1592l579 -1592h-135l-205 564h-479l-205 -564h-135zM315 1579l254 260h114l264 -260h-157l-164 126l-154 -126h-157zM437 691h386l-193 531z" />
<glyph unicode="&#xc3;" d="M50 0l580 1592l579 -1592h-135l-205 564h-479l-205 -564h-135zM362 1627q32 190 156 190q60 0 121.5 -48.5t98.5 -48.5h4q29 2 48 77h107q-26 -158 -111 -183q-23 -6 -45 -6q-60 0 -121 48t-99 48h-4q-29 -1 -48 -77h-107zM437 691h386l-193 531z" />
<glyph unicode="&#xc4;" d="M50 0l580 1592l579 -1592h-135l-205 564h-479l-205 -564h-135zM387 1730.5q0 43.5 31 74t74 30.5t74 -30.5t31 -74t-31 -74t-74 -30.5t-74 30.5t-31 74zM437 691h386l-193 531zM663 1730.5q0 43.5 31 74t74 30.5t74 -30.5t31 -74t-31 -74t-74 -30.5t-74 30.5t-31 74z" />
<glyph unicode="&#xc5;" d="M50 0l521 1432q-11 3 -43.5 36t-32.5 88.5t39.5 95t95 39.5t95 -39.5t39.5 -95t-33 -88.5t-43 -36l521 -1432h-135l-205 564h-479l-205 -564h-135zM437 691h386l-193 531zM598 1556.5q0 -12.5 8.5 -21t15.5 -9.5h15q7 1 15 9.5t8 21t-9 21.5t-21.5 9t-22 -9t-9.5 -21.5z " />
<glyph unicode="&#xc6;" horiz-adv-x="1693" d="M125 0l659 1516h784v-127h-653v-568h653v-126h-653v-568h653v-127h-780v564h-276l-251 -564h-136zM562 691h226v526z" />
<glyph unicode="&#xc7;" horiz-adv-x="1540" d="M125 757.5q0 321.5 227 548.5t538 227t550 -217l-95 -87q-198 176 -455 176t-446.5 -189.5t-189.5 -458t189.5 -458t446.5 -189.5t455 176l95 -85q-223 -204 -482 -217l6 19q81 0 111 -50q13 -24 13 -50.5t-22 -70.5q-39 -74 -156 -74h-16q-54 3 -110 41l68 61 q20 -7 37 -8h8q15 0 32 4q28 8 28 29v2q-19 21 -53 21t-118 -7l51 83q-268 8 -490 230t-222 543.5z" />
<glyph unicode="&#xc8;" horiz-adv-x="1055" d="M150 0v1516h780v-127h-653v-568h653v-126h-653v-568h653v-127h-780zM273 1851h228l189 -216h-134z" />
<glyph unicode="&#xc9;" horiz-adv-x="1055" d="M150 0v1516h780v-127h-653v-568h653v-126h-653v-568h653v-127h-780zM390 1635l189 216h228l-283 -216h-134z" />
<glyph unicode="&#xca;" horiz-adv-x="1055" d="M150 0v1516h780v-127h-653v-568h653v-126h-653v-568h653v-127h-780zM226 1575l254 260h114l264 -260h-157l-163 126l-155 -126h-157z" />
<glyph unicode="&#xcb;" horiz-adv-x="1055" d="M150 0v1516h780v-127h-653v-568h653v-126h-653v-568h653v-127h-780zM297 1740q0 44 31 74t74 30t74 -30t31 -74t-31 -74.5t-74 -30.5t-74 30.5t-31 74.5zM573 1740q0 44 31 74t74 30t74 -30t31 -74t-31 -74.5t-74 -30.5t-74 30.5t-31 74.5z" />
<glyph unicode="&#xcc;" horiz-adv-x="512" d="M-74 1851h228l188 -216h-133zM194 0v1516h126v-1516h-126z" />
<glyph unicode="&#xcd;" horiz-adv-x="512" d="M170 1635l188 216h228l-283 -216h-133zM192 0v1516h127v-1516h-127z" />
<glyph unicode="&#xce;" horiz-adv-x="490" d="M-70 1579l254 260h114l263 -260h-157l-163 126l-154 -126h-157zM181 0v1516h127v-1516h-127z" />
<glyph unicode="&#xcf;" horiz-adv-x="436" d="M-25 1740q0 44 31 74t74 30t74 -30t31 -74t-31 -74.5t-74 -30.5t-74 30.5t-31 74.5zM154 0v1516h127v-1516h-127zM251 1740q0 44 31 74t74 30t74 -30t31 -74t-31 -74.5t-74 -30.5t-74 30.5t-31 74.5z" />
<glyph unicode="&#xd0;" horiz-adv-x="1239" d="M50 695v126h147v695h127v-2q361 -4 563 -207q227 -228 227 -549.5t-227 -548.5q-202 -203 -563 -207v-2h-127v695h-147zM324 130q303 0 472 170q190 189 190 457.5t-190 458.5q-169 170 -472 170v-565h340v-126h-340v-565z" />
<glyph unicode="&#xd1;" horiz-adv-x="1274" d="M150 0v1516h126l721 -1249v1249h127v-1516h-117l-730 1262v-1262h-127zM369 1627q27 158 112 183q23 7 45 7q60 0 121.5 -48.5t98.5 -48.5h4q29 2 48 77h106q-25 -158 -110 -183q-23 -6 -45 -6q-60 0 -121.5 48t-98.5 48h-4q-29 -1 -48 -77h-108z" />
<glyph unicode="&#xd2;" horiz-adv-x="1805" d="M125 760q0 322 227.5 549.5t549.5 227.5t550 -227.5t228 -549.5t-228 -549.5t-550 -227.5t-549.5 227.5t-227.5 549.5zM254 760q0 -269 190 -459.5t458.5 -190.5t458.5 190.5t190 459.5t-190 459t-458.5 190t-458.5 -190t-190 -459zM636 1851h228l188 -216h-133z" />
<glyph unicode="&#xd3;" horiz-adv-x="1805" d="M125 760q0 322 227.5 549.5t549.5 227.5t550 -227.5t228 -549.5t-228 -549.5t-550 -227.5t-549.5 227.5t-227.5 549.5zM254 760q0 -269 190 -459.5t458.5 -190.5t458.5 190.5t190 459.5t-190 459t-458.5 190t-458.5 -190t-190 -459zM753 1635l188 216h228l-283 -216h-133 z" />
<glyph unicode="&#xd4;" horiz-adv-x="1805" d="M125 760q0 322 227.5 549.5t549.5 227.5t550 -227.5t228 -549.5t-228 -549.5t-550 -227.5t-549.5 227.5t-227.5 549.5zM254 760q0 -269 190 -459.5t458.5 -190.5t458.5 190.5t190 459.5t-190 459t-458.5 190t-458.5 -190t-190 -459zM589 1625l253 260h114l264 -260h-157 l-163 126l-155 -126h-156z" />
<glyph unicode="&#xd5;" horiz-adv-x="1805" d="M125 760q0 322 227.5 549.5t549.5 227.5t550 -227.5t228 -549.5t-228 -549.5t-550 -227.5t-549.5 227.5t-227.5 549.5zM254 760q0 -269 190 -459.5t458.5 -190.5t458.5 190.5t190 459.5t-190 459t-458.5 190t-458.5 -190t-190 -459zM635 1646q27 158 112 183q23 6 45 6 q60 0 121 -48.5t99 -48.5h4q29 2 48 78h106q-31 -190 -155 -190q-61 0 -122 48.5t-98 48.5h-4q-29 -2 -48 -77h-108z" />
<glyph unicode="&#xd6;" horiz-adv-x="1805" d="M125 760q0 322 227.5 549.5t549.5 227.5t550 -227.5t228 -549.5t-228 -549.5t-550 -227.5t-549.5 227.5t-227.5 549.5zM254 760q0 -269 190 -459.5t458.5 -190.5t458.5 190.5t190 459.5t-190 459t-458.5 190t-458.5 -190t-190 -459zM660 1740q0 44 30.5 74t73.5 30 t74 -30t31 -74t-31 -74.5t-74 -30.5t-73.5 30.5t-30.5 74.5zM936 1740q0 44 30.5 74t73.5 30t74 -30t31 -74t-31 -74.5t-74 -30.5t-73.5 30.5t-30.5 74.5z" />
<glyph unicode="&#xd7;" horiz-adv-x="1062" d="M210 336l231 231l-231 231l90 90l231 -231l231 231l89 -91l-231 -230l231 -231l-89 -90l-231 231l-231 -231z" />
<glyph unicode="&#xd8;" horiz-adv-x="1805" d="M125 760q0 322 227.5 549.5t549.5 227.5q156 0 271 -46l79 170l116 -53l-80 -171q79 -43 164 -127q228 -228 228 -550t-228 -549.5t-550 -227.5q-156 0 -270 46l-80 -171l-115 54l80 170q-80 44 -164 129q-228 227 -228 549zM254 760q0 -269 190 -459q69 -69 127 -102 l547 1175q-87 35 -216 35q-268 0 -458 -190t-190 -459zM686 145q88 -35 216 -35q269 0 459 190.5t190 459.5t-189 459q-70 69 -129 101z" />
<glyph unicode="&#xd9;" horiz-adv-x="1305" d="M150 489v1027h128v-1027q0 -154 110 -264t265.5 -110t265 110t109.5 264v1027h127v-1081q-24 -178 -147 -301q-147 -147 -355.5 -147t-355.5 147.5t-147 354.5zM386 1851h227l189 -216h-133z" />
<glyph unicode="&#xda;" horiz-adv-x="1305" d="M150 489v1027h128v-1027q0 -154 110 -264t265.5 -110t265 110t109.5 264v1027h127v-1081q-24 -178 -147 -301q-147 -147 -355.5 -147t-355.5 147.5t-147 354.5zM504 1635l188 216h228l-283 -216h-133z" />
<glyph unicode="&#xdb;" horiz-adv-x="1305" d="M150 489v1027h128v-1027q0 -154 110 -264t265.5 -110t265 110t109.5 264v1027h127v-1081q-24 -178 -147 -301q-147 -147 -355.5 -147t-355.5 147.5t-147 354.5zM339 1579l253 260h114l264 -260h-157l-163 126l-155 -126h-156z" />
<glyph unicode="&#xdc;" horiz-adv-x="1305" d="M150 489v1027h128v-1027q0 -154 110 -264t265.5 -110t265 110t109.5 264v1027h127v-1081q-24 -178 -147 -301q-147 -147 -355.5 -147t-355.5 147.5t-147 354.5zM410 1730.5q0 43.5 31 74t74 30.5t74 -30.5t31 -74t-31 -74t-74 -30.5t-74 30.5t-31 74zM686 1730.5 q0 43.5 31 74t74 30.5t74 -30.5t31 -74t-31 -74t-74 -30.5t-74 30.5t-31 74z" />
<glyph unicode="&#xdd;" horiz-adv-x="1272" d="M50 1516h146l440 -763l440 763h146l-523 -905v-611h-127v611zM487 1635l188 216h228l-283 -216h-133z" />
<glyph unicode="&#xde;" horiz-adv-x="1097" d="M150 0v1516h127v-255h283q177 -24 300 -147q147 -147 147 -355.5t-147 -355.5t-355 -147h-228v-256h-127zM277 383h228q155 0 265 110t110 265.5t-110 265t-265 109.5h-228v-750z" />
<glyph unicode="&#xe0;" horiz-adv-x="1317" d="M125 501.5q0 218.5 154.5 373t373 154.5t387.5 -165v83h127v-947h-127v139q-169 -165 -387.5 -165t-373 154.5t-154.5 373zM256 501q0 -164 116 -279t280 -115t280 115q87 88 108 200v159q-21 113 -108 200q-116 116 -280 116t-280 -116t-116 -280zM369 1328h228 l188 -216h-133z" />
<glyph unicode="&#xe1;" horiz-adv-x="1317" d="M125 501.5q0 218.5 154.5 373t373 154.5t387.5 -165v83h127v-947h-127v139q-169 -165 -387.5 -165t-373 154.5t-154.5 373zM256 501q0 -164 116 -279t280 -115t280 115q87 88 108 200v159q-21 113 -108 200q-116 116 -280 116t-280 -116t-116 -280zM507 1112l188 216h228 l-283 -216h-133z" />
<glyph unicode="&#xe2;" horiz-adv-x="1317" d="M125 501.5q0 218.5 154.5 373t373 154.5t387.5 -165v83h127v-947h-127v139q-169 -165 -387.5 -165t-373 154.5t-154.5 373zM256 501q0 -164 116 -279t280 -115t280 115q87 88 108 200v159q-21 113 -108 200q-116 116 -280 116t-280 -116t-116 -280zM330 1103l254 259h114 l263 -259h-157l-163 125l-154 -125h-157z" />
<glyph unicode="&#xe3;" horiz-adv-x="1317" d="M125 501.5q0 218.5 154.5 373t373 154.5t387.5 -165v83h127v-947h-127v139q-169 -165 -387.5 -165t-373 154.5t-154.5 373zM256 501q0 -164 116 -279t280 -115t280 115q87 88 108 200v159q-21 113 -108 200q-116 116 -280 116t-280 -116t-116 -280zM379 1151 q27 158 112 183q22 6 45 6q60 0 121 -48.5t99 -48.5h4q29 2 47 78h107q-26 -158 -111 -183q-22 -7 -45 -7q-60 0 -121 48.5t-99 48.5h-3q-30 -2 -48 -77h-108z" />
<glyph unicode="&#xe4;" horiz-adv-x="1317" d="M125 501.5q0 218.5 154.5 373t373 154.5t387.5 -165v83h127v-947h-127v139q-169 -165 -387.5 -165t-373 154.5t-154.5 373zM256 501q0 -164 116 -279t280 -115t280 115q87 88 108 200v159q-21 113 -108 200q-116 116 -280 116t-280 -116t-116 -280zM403 1263.5 q0 43.5 31 74t74 30.5t74 -30.5t31 -74t-31 -74t-74 -30.5t-74 30.5t-31 74zM679 1263.5q0 43.5 31 74t74 30.5t74 -30.5t31 -74t-31 -74t-74 -30.5t-74 30.5t-31 74z" />
<glyph unicode="&#xe5;" horiz-adv-x="1317" d="M125 501.5q0 218.5 144.5 363t281.5 147.5q-40 40 -40 95.5t40 95t95.5 39.5t95 -39.5t39.5 -95t-40 -95.5h2q145 0 283 -137l14 -11v83h127v-947h-127v139q5 7 5 8q-2 0 -19 -18q-155 -155 -373.5 -155t-373 154.5t-154.5 373zM256 501q0 -164 116 -279t280 -115 t280 115q87 88 108 200v159q-21 113 -108 200q-116 116 -280 116t-280 -116t-116 -280zM615 1107.5q0 -12.5 9.5 -22t22 -9.5t21.5 9.5t9 22t-9 21.5t-21.5 9t-22 -9t-9.5 -21.5z" />
<glyph unicode="&#xe6;" horiz-adv-x="2057" d="M90 501.5q0 218.5 154.5 373t373 154.5t387.5 -165v83h127v-21q112 103 324.5 103t358 -146t151.5 -357l-834 1v-262q14 -20 38 -42q116 -116 280 -116t279 115q21 21 48 55l129 -45q-31 -52 -83 -103q-154 -155 -366.5 -155t-324.5 104v-78h-127v139 q-169 -165 -387.5 -165t-373 154.5t-154.5 373zM221 501q0 -164 116 -279t280 -115t280 115q86 86 108 199v160q-22 114 -108 200q-116 116 -280 116t-280 -116t-116 -280zM1132 654h682q-18 61 -85 127q-115 116 -279 116q-195 0 -318 -158v-85z" />
<glyph unicode="&#xe7;" horiz-adv-x="1154" d="M90 501.5q0 218.5 154.5 373t373 154.5t373.5 -154q31 -32 73 -89l-129 -48q-23 28 -38 44q-116 115 -279.5 115t-279.5 -115.5t-116 -279.5t116 -279.5t291.5 -115.5t305.5 158l129 -46q-153 -215 -347 -215q-16 0 -32 1q74 -15 98.5 -44t24.5 -56.5t-16 -56.5 q-30 -56 -75 -71.5t-87 -15.5h-15q-55 3 -112 40l70 62q19 -7 37 -9h7q57 0 57 31q0 26 -58 26q-26 0 -109 -8l44 74q-162 8 -311.5 157t-149.5 367.5z" />
<glyph unicode="&#xe8;" horiz-adv-x="1243" d="M90 501.5q0 218.5 154.5 373t357.5 154.5q235 0 389 -154q8 -9 30 -33l-650 -650q94 -85 246 -85q188 0 318 158l129 -46q-42 -59 -73 -90q-155 -155 -373.5 -155t-373 154.5t-154.5 373zM222 516.5q0 -149.5 63 -231.5l549 549q-82 63 -231 63t-265 -115.5t-116 -265z M345 1328h228l188 -216h-133z" />
<glyph unicode="&#xe9;" horiz-adv-x="1243" d="M90 501.5q0 218.5 154.5 373t357.5 154.5q235 0 389 -154q8 -9 30 -33l-650 -650q94 -85 246 -85q188 0 318 158l129 -46q-42 -59 -73 -90q-155 -155 -373.5 -155t-373 154.5t-154.5 373zM222 516.5q0 -149.5 63 -231.5l549 549q-82 63 -231 63t-265 -115.5t-116 -265z M462 1112l188 216h228l-283 -216h-133z" />
<glyph unicode="&#xea;" horiz-adv-x="1243" d="M90 501.5q0 218.5 154.5 373t357.5 154.5q235 0 389 -154q8 -9 30 -33l-650 -650q94 -85 246 -85q188 0 318 158l129 -46q-42 -59 -73 -90q-155 -155 -373.5 -155t-373 154.5t-154.5 373zM222 516.5q0 -149.5 63 -231.5l549 549q-82 63 -231 63t-265 -115.5t-116 -265z M298 1103l254 259h114l263 -259h-157l-163 125l-154 -125h-157z" />
<glyph unicode="&#xeb;" horiz-adv-x="1243" d="M90 501.5q0 218.5 154.5 373t357.5 154.5q235 0 389 -154q8 -9 30 -33l-650 -650q94 -85 246 -85q188 0 318 158l129 -46q-42 -59 -73 -90q-155 -155 -373.5 -155t-373 154.5t-154.5 373zM222 516.5q0 -149.5 63 -231.5l549 549q-82 63 -231 63t-265 -115.5t-116 -265z M369 1263.5q0 43.5 31 74t74 30.5t73.5 -30.5t30.5 -74t-30.5 -74t-73.5 -30.5t-74 30.5t-31 74zM645 1263.5q0 43.5 31 74t74 30.5t73.5 -30.5t30.5 -74t-30.5 -74t-73.5 -30.5t-74 30.5t-31 74z" />
<glyph unicode="&#xec;" horiz-adv-x="512" d="M-74 1328h228l188 -216h-133zM194 0v947h126v-947h-126z" />
<glyph unicode="&#xed;" horiz-adv-x="512" d="M170 1112l188 216h228l-283 -216h-133zM192 0v947h127v-947h-127z" />
<glyph unicode="&#xee;" horiz-adv-x="490" d="M-70 1103l254 259h114l263 -259h-157l-163 125l-154 -125h-157zM181 0v947h127v-947h-127z" />
<glyph unicode="&#xef;" horiz-adv-x="436" d="M-25 1263.5q0 43.5 31 74t74 30.5t74 -30.5t31 -74t-31 -74t-74 -30.5t-74 30.5t-31 74zM154 0v947h127v-947h-127zM251 1263.5q0 43.5 31 74t74 30.5t74 -30.5t31 -74t-31 -74t-74 -30.5t-74 30.5t-31 74z" />
<glyph unicode="&#xf0;" horiz-adv-x="1234" d="M90 501.5q0 218.5 154.5 373t378.5 157.5l-6 6h-166v127h52l-96 105h177l106 -105h163v-127h-35l106 -106q34 -25 67 -57q153 -155 153 -373.5t-154 -373t-372.5 -154.5t-373 154.5t-154.5 373zM221 501q0 -164 116 -279t280 -115t280 115t116 279t-116 280t-280 116 t-280 -116t-116 -280z" />
<glyph unicode="&#xf1;" horiz-adv-x="1053" d="M150 0v947h127v-27q82 82 246 82t270.5 -107t109.5 -268v-627h-126v619q0 106 -77 181t-182 75t-182 -74q-42 -42 -59 -82v-719h-127zM259 1151q27 158 112 183q22 6 45 6q60 0 121 -48.5t99 -48.5h4q29 2 47 78h107q-26 -158 -111 -183q-22 -7 -45 -7q-60 0 -121 48.5 t-98 48.5h-4q-30 -2 -48 -77h-108z" />
<glyph unicode="&#xf2;" horiz-adv-x="1234" d="M90 501.5q0 218.5 154.5 373t373 154.5t372.5 -154.5t154 -373t-154 -373t-372.5 -154.5t-373 154.5t-154.5 373zM221 501q0 -164 116 -279t280 -115t280 115t116 279t-116 280t-280 116t-280 -116t-116 -280zM351 1328h227l189 -216h-133z" />
<glyph unicode="&#xf3;" horiz-adv-x="1234" d="M90 501.5q0 218.5 154.5 373t373 154.5t372.5 -154.5t154 -373t-154 -373t-372.5 -154.5t-373 154.5t-154.5 373zM221 501q0 -164 116 -279t280 -115t280 115t116 279t-116 280t-280 116t-280 -116t-116 -280zM468 1112l188 216h228l-283 -216h-133z" />
<glyph unicode="&#xf4;" horiz-adv-x="1234" d="M90 501.5q0 218.5 154.5 373t373 154.5t372.5 -154.5t154 -373t-154 -373t-372.5 -154.5t-373 154.5t-154.5 373zM221 501q0 -164 116 -279t280 -115t280 115t116 279t-116 280t-280 116t-280 -116t-116 -280zM303 1103l254 259h114l264 -259h-157l-163 125l-155 -125 h-157z" />
<glyph unicode="&#xf5;" horiz-adv-x="1234" d="M90 501.5q0 218.5 154.5 373t373 154.5t372.5 -154.5t154 -373t-154 -373t-372.5 -154.5t-373 154.5t-154.5 373zM221 501q0 -164 116 -279t280 -115t280 115t116 279t-116 280t-280 116t-280 -116t-116 -280zM350 1151q27 158 112 183q22 6 45 6q60 0 121 -48.5 t99 -48.5h4q29 2 47 78h107q-26 -158 -111 -183q-22 -7 -45 -7q-60 0 -121 48.5t-99 48.5h-4q-29 -2 -47 -77h-108z" />
<glyph unicode="&#xf6;" horiz-adv-x="1234" d="M90 501.5q0 218.5 154.5 373t373 154.5t372.5 -154.5t154 -373t-154 -373t-372.5 -154.5t-373 154.5t-154.5 373zM221 501q0 -164 116 -279t280 -115t280 115t116 279t-116 280t-280 116t-280 -116t-116 -280zM374 1263.5q0 43.5 31 74t74 30.5t74 -30.5t31 -74t-31 -74 t-74 -30.5t-74 30.5t-31 74zM650 1263.5q0 43.5 31 74t74 30.5t74 -30.5t31 -74t-31 -74t-74 -30.5t-74 30.5t-31 74z" />
<glyph unicode="&#xf7;" horiz-adv-x="1030" d="M125 523v127h780v-127h-780zM410 352.5q0 43.5 31 74t74 30.5t74 -30.5t31 -74t-31 -74t-74 -30.5t-74 30.5t-31 74zM410 820.5q0 43.5 31 74t74 30.5t74 -30.5t31 -74t-31 -74t-74 -30.5t-74 30.5t-31 74z" />
<glyph unicode="&#xf8;" horiz-adv-x="1234" d="M90 502.5q0 218.5 154.5 373t372.5 154.5q124 0 209 -41l113 196l112 -58l-117 -202q22 -15 57 -49q153 -155 153 -373.5t-154 -373t-373 -154.5q-124 0 -208 41l-113 -196l-113 54l118 206q-22 15 -56 50q-155 154 -155 372.5zM221 502q0 -164 116 -279q24 -24 30 -28 l392 679q-53 24 -142 24q-164 0 -280 -116t-116 -280zM475 131q53 -24 142 -24q164 0 280 115.5t116 279.5t-116 280q-24 24 -29 28z" />
<glyph unicode="&#xf9;" horiz-adv-x="1079" d="M150 362v587h127v-579q0 -106 76.5 -181t186 -75t186 75t76.5 181v579h127v-587q-3 -162 -109.5 -268.5t-280 -106.5t-280 106.5t-109.5 268.5zM273 1328h227l189 -216h-133z" />
<glyph unicode="&#xfa;" horiz-adv-x="1079" d="M150 362v587h127v-579q0 -106 76.5 -181t186 -75t186 75t76.5 181v579h127v-587q-3 -162 -109.5 -268.5t-280 -106.5t-280 106.5t-109.5 268.5zM390 1112l189 216h228l-283 -216h-134z" />
<glyph unicode="&#xfb;" horiz-adv-x="1079" d="M150 362v587h127v-579q0 -106 76.5 -181t186 -75t186 75t76.5 181v579h127v-587q-3 -162 -109.5 -268.5t-280 -106.5t-280 106.5t-109.5 268.5zM225 1103l254 259h114l264 -259h-157l-163 125l-155 -125h-157z" />
<glyph unicode="&#xfc;" horiz-adv-x="1079" d="M150 362v587h127v-579q0 -106 76.5 -181t186 -75t186 75t76.5 181v579h127v-587q-3 -162 -109.5 -268.5t-280 -106.5t-280 106.5t-109.5 268.5zM297 1263.5q0 43.5 31 74t74 30.5t74 -30.5t31 -74t-31 -74t-74 -30.5t-74 30.5t-31 74zM573 1263.5q0 43.5 31 74t74 30.5 t74 -30.5t31 -74t-31 -74t-74 -30.5t-74 30.5t-31 74z" />
<glyph unicode="&#xfd;" horiz-adv-x="1007" d="M75 947h143l286 -617l286 617h141l-618 -1292h-129l254 534zM354 1112l188 216h228l-283 -216h-133z" />
<glyph unicode="&#xfe;" horiz-adv-x="1292" d="M129 -329v1661h127v-463q166 159 384 159t372.5 -154t154.5 -372.5t-154.5 -373t-372.5 -154.5t-384 160v-463h-127zM256 401q24 -100 104 -179q116 -116 279.5 -116t279.5 115.5t116 279.5t-116 280t-279.5 116t-279.5 -116q-80 -79 -104 -179v-201z" />
<glyph unicode="&#xff;" horiz-adv-x="1007" d="M75 947h143l286 -617l286 617h141l-618 -1292h-129l254 534zM261 1263.5q0 43.5 31 74t74 30.5t73.5 -30.5t30.5 -74t-30.5 -74t-73.5 -30.5t-74 30.5t-31 74zM537 1263.5q0 43.5 31 74t74 30.5t73.5 -30.5t30.5 -74t-30.5 -74t-73.5 -30.5t-74 30.5t-31 74z" />
<glyph unicode="&#x152;" horiz-adv-x="2173" d="M90 760q0 322 227.5 549.5t549.5 227.5q129 0 241 -21h940v-127h-716q14 -8 85 -79q213 -214 226 -489h405v-126h-405q-14 -273 -226 -484q-74 -75 -90 -84h721v-127h-941q-111 -17 -240 -17q-322 0 -549.5 227.5t-227.5 549.5zM219 760q0 -269 190 -459.5t458 -190.5 q173 0 311 78q79 43 148 113q190 190 190 459t-189 459q-102 100 -219 145t-241 45q-268 0 -458 -190t-190 -459z" />
<glyph unicode="&#x153;" horiz-adv-x="2016" d="M90 501.5q0 218.5 154.5 373t373 154.5t373.5 -154q21 -22 22 -24l24 24q154 154 372.5 154t373.5 -154q136 -138 143 -349h-782v-25q0 -136 -54 -235q122 -159 319 -159q164 0 280 115q20 21 48 55l128 -45q-31 -52 -82 -103q-155 -155 -373.5 -155t-372.5 155l-24 24 q-1 -2 -22 -24q-155 -155 -373.5 -155t-373 154.5t-154.5 373zM221 501q0 -164 116 -279t280 -115t280 115t116 279t-116 280t-280 116t-280 -116t-116 -280zM1091 737q21 -41 32 -83h651q-19 61 -85 127q-116 116 -280 116t-280 -116q-26 -26 -38 -44z" />
<glyph unicode="&#x178;" horiz-adv-x="1272" d="M50 1516h146l440 -763l440 763h146l-523 -905v-611h-127v611zM393 1781.5q0 43.5 31 74t74 30.5t74 -30.5t31 -74t-31 -74t-74 -30.5t-74 30.5t-31 74zM669 1781.5q0 43.5 31 74t74 30.5t74 -30.5t31 -74t-31 -74t-74 -30.5t-74 30.5t-31 74z" />
<glyph unicode="&#x2c6;" horiz-adv-x="871" d="M121 1103l254 259h114l263 -259h-157l-163 125l-154 -125h-157z" />
<glyph unicode="&#x2dc;" horiz-adv-x="835" d="M150 1151q27 158 112 183q22 6 45 6q60 0 121 -48.5t99 -48.5h4q29 2 47 78h107q-26 -158 -111 -183q-22 -7 -45 -7q-60 0 -121 48.5t-99 48.5h-3q-30 -2 -48 -77h-108z" />
<glyph unicode="&#x2000;" horiz-adv-x="943" />
<glyph unicode="&#x2001;" horiz-adv-x="1886" />
<glyph unicode="&#x2002;" horiz-adv-x="943" />
<glyph unicode="&#x2003;" horiz-adv-x="1886" />
<glyph unicode="&#x2004;" horiz-adv-x="628" />
<glyph unicode="&#x2005;" horiz-adv-x="471" />
<glyph unicode="&#x2006;" horiz-adv-x="314" />
<glyph unicode="&#x2007;" horiz-adv-x="314" />
<glyph unicode="&#x2008;" horiz-adv-x="235" />
<glyph unicode="&#x2009;" horiz-adv-x="377" />
<glyph unicode="&#x200a;" horiz-adv-x="104" />
<glyph unicode="&#x2010;" horiz-adv-x="837" d="M125 503v127h587v-127h-587z" />
<glyph unicode="&#x2011;" horiz-adv-x="837" d="M125 503v127h587v-127h-587z" />
<glyph unicode="&#x2012;" horiz-adv-x="837" d="M125 503v127h587v-127h-587z" />
<glyph unicode="&#x2013;" horiz-adv-x="853" d="M50 503v127h753v-127h-753z" />
<glyph unicode="&#x2014;" horiz-adv-x="1438" d="M50 503v127h1338v-127h-1338z" />
<glyph unicode="&#x2018;" horiz-adv-x="311" d="M50 1276.5q0 33.5 8 54.5l97 195h105l-54 -144q2 0 28 -26t26 -69.5t-31 -74t-74 -30.5t-74 30.5t-31 64z" />
<glyph unicode="&#x2019;" horiz-adv-x="311" d="M50 1182l55 144q-3 1 -28.5 26.5t-25.5 69.5t30.5 74t74 30t74 -30t30.5 -63.5t-8 -55.5l-97 -195h-105z" />
<glyph unicode="&#x201a;" horiz-adv-x="311" d="M50 -150l55 144q-3 1 -28.5 26.5t-25.5 69t30.5 74t74 30.5t74 -30.5t30.5 -63.5t-8 -55l-97 -195h-105z" />
<glyph unicode="&#x201c;" horiz-adv-x="542" d="M50 1276.5q0 33.5 8 54.5l97 195h105l-54 -144q2 0 28 -26t26 -69.5t-31 -74t-74 -30.5t-74 30.5t-31 64zM282 1276.5q0 33.5 8 54.5l97 195h105l-55 -144q3 0 28.5 -26t25.5 -69.5t-30.5 -74t-73.5 -30.5t-74 30.5t-31 64z" />
<glyph unicode="&#x201d;" horiz-adv-x="542" d="M50 1182l55 144q-3 1 -28.5 26.5t-25.5 69.5t30.5 74t74 30t74 -30t30.5 -63.5t-8 -55.5l-97 -195h-105zM282 1182l55 144q-3 1 -28.5 26.5t-25.5 69.5t30.5 74t73.5 30t74 -30t31 -63.5t-8 -55.5l-97 -195h-105z" />
<glyph unicode="&#x201e;" horiz-adv-x="542" d="M50 -150l55 144q-3 1 -28.5 26.5t-25.5 69t30.5 74t74 30.5t74 -30.5t30.5 -63.5t-8 -55l-97 -195h-105zM282 -150l55 144q-3 1 -28.5 26.5t-25.5 69t30.5 74t73.5 30.5t74 -30.5t31 -63.5t-8 -55l-97 -195h-105z" />
<glyph unicode="&#x2022;" horiz-adv-x="2930" d="M148 -60q36 18 36 24v180q0 22 -34 32q88 42 126 68q18 -2 22 -52v-2q14 6 26 12l116 42q8 -42 18 -76q22 -75 22 -126q0 -106 -164 -250q52 96 52 179q0 22 -11 83.5t-23 87.5q-36 -26 -36 -54v-116q0 -20 40 -30q-32 -10 -67.5 -31.5t-51.5 -21.5q-36 0 -71 51z M214 1092v28q224 62 294 146q74 106 174 106h8q132 0 132 -78q0 -24 -20 -48v-8q22 -126 112 -126l-70 302q24 0 84 90l252 302h546q28 -22 252 -330q56 -60 56 -90v-14l-50 -182l14 -42l-28 -42h8q118 48 118 132v8q-20 24 -20 48q0 78 132 78h8q104 0 210 -140 q68 -56 258 -112v-28q-20 0 -20 -14l6 -8v-6q-6 -28 -42 -28h-14l-216 -14q-32 28 -106 28l-62 28l-8 -22q26 -84 120 -84l20 -6q78 6 78 20v8l-14 20v8l28 -14l34 6h112l42 8l22 -8v-14q0 -40 -204 -70l-126 8v-22q114 -34 190 -34h42v-8q-52 -70 -162 -70h-28 q-70 0 -160 36v-8q0 -36 160 -90q0 -28 -76 -36q-44 0 -190 64q0 -34 70 -92l-20 -14l-134 42v-6l22 -56l-28 -8q-38 0 -134 126l-62 -308v-6h-742q-38 0 -84 294q-74 -94 -120 -106l-28 8l22 62h-8q-86 -42 -132 -42l-14 22q70 42 70 84h-8q-128 -64 -188 -64q-70 8 -70 36 q160 54 160 90v8h-6q-72 -36 -154 -36h-28q-110 0 -162 70v8h42q76 0 190 34v22l-140 -8q-190 34 -190 70v14h14v8l50 -8h112l28 -6l34 14v-8l-14 -20v-8q0 -14 70 -20q148 12 148 104l-8 8q-52 -28 -140 -36q0 -10 -28 -20l-216 14h-14q-36 0 -42 28l6 20zM424 1098l14 -14 h90l22 22v14h-14v6l-112 -20v-8zM451 -159q1 67 69 97q-8 22 -8 26v180q0 22 -34 32q88 42 126 68q18 -2 22 -52v-220q2 -17 13 -17t33 19v170q0 22 -34 32q88 42 126 68q18 -2 22 -52v-180q0 -51 -79 -87t-125 -36h-5q-55 0 -55 -48q0 -36 37 -36t74 21.5t60.5 21.5t40 -8 t25 -25t8.5 -28.5t-9 -24.5q-16 -16 -28.5 -16t-30 10t-26.5 29.5t-12.5 19.5t-10.5 -7q-53 -53 -103 -53q-16 0 -32 6q-64 23 -64 88v2zM522 860h90q90 0 126 78v48h-6l-112 -48q0 -14 -78 -42l-20 -22v-14zM690 1316l20 -42l70 28v20h-90v-6zM696 1042l8 -6h28l14 14 l-22 48h-14zM704 798l6 -8v-6q112 40 112 126v6h-6q-64 -42 -112 -112v-6zM774 966h20l14 14v14q0 10 -28 20l-6 -6v-42zM796 -60l27 15q9 5 9 9v180q0 22 -34 32q86 42 126 68q18 -2 22 -52v-2q12 6 26 12l86 42q2 -8 19 -29t21 -29q18 8 38 16l86 42q0 -8 26 -41t26 -51 v-180q0 -19 36 -29v201q0 22 -34 32q88 42 126 68q14 -30 28 -52q12 4 24 10l114 42q8 -42 24 -94.5t16 -82t-12 -53.5q-28 -60 -84 -89t-88 -37v-58q0 -6 4 -15t36 -15q-32 -12 -66.5 -33.5t-50.5 -21.5q-37 0 -73 53q36 14 36 22v121q-31 -11 -62.5 -30.5t-50 -19.5 t-37.5 37v144q-4 30 -34 70q-10 -14 -14 -38v-132q0 -20 40 -30q-32 -10 -65.5 -30.5t-44.5 -20.5q-26 0 -44 37v144q-4 30 -34 70q-18 -14 -18 -38v-132q0 -17 22 -30q-74 -53 -105.5 -53t-66.5 51zM830 762h6l64 22v76h-8q-62 -32 -62 -98zM850 938l22 -22h6l14 14v8 l-20 20h-8l-14 -14v-6zM934 762l8 -6v-8q28 10 42 36v28l-14 14l-36 -36v-28zM934 888l8 -6h6l14 14l-14 14zM948 1448h22q192 228 238 302q-22 0 -22 20h-6q-112 -112 -112 -154q-120 -132 -120 -168zM962 1350h8l6 -6h8q0 34 90 132l162 224l-14 14l-64 -84 q-174 -216 -196 -280zM1004 1176q68 -454 196 -490l-188 510h-8v-20zM1018 1344l224 -644h406q92 254 190 608l-70 112q-162 250 -162 274h-336l-252 -344v-6zM1180 504l28 -8l146 70v8q0 14 -84 28q-34 0 -90 -92v-6zM1236 962v6q64 152 64 204q-42 90 -42 126 q34 182 182 182h4q178 0 178 -182q0 -34 -50 -140v-8l70 -188h-406zM1256 658l14 -14h308l70 6v8h-392zM1428 81q0 -35 14 -59t36 -24q28 4 30 36q-4 32 -19 57t-27 51q-34 -26 -34 -61zM1544 566l154 -70l20 8v6q-36 68 -84 92q-90 -14 -90 -28v-8zM1590 -60q36 18 36 24 v384q0 22 -34 34q88 42 125 52q19 -28 43 -56q-20 -4 -20 -22v-160q8 4 18 8l114 42q8 -42 19 -76q22 -68 22 -103.5t-30.5 -102t-118.5 -132.5q42 81 42 128t-14 102.5t-26 81.5q-18 -12 -26 -26v-146q0 -20 40 -30q-32 -10 -67.5 -31.5t-51.5 -21.5q-36 0 -71 51z M1628 1708l182 -288q56 -84 90 -84l28 22l-258 384zM1704 1742q194 -256 232 -286v6q-174 262 -232 302v-22zM1718 728h8q98 0 168 448q-6 48 -22 48q-42 -56 -154 -462v-34zM1900 806q0 -26 56 -58l8 8v34l-50 42q-14 0 -14 -26zM1925 31q0 111 145 171l116 42 q6 -42 22.5 -94.5t16.5 -82t-13 -53.5q-28 -60 -93.5 -94t-105.5 -34h-8q-41 4 -67 72q-13 38 -13 73zM1936 896l14 -14l14 14l-22 14l-6 -8v-6zM1998 784l64 -22h6v8q0 56 -62 90h-8v-76zM2006 930l14 -14h6l22 22v6l-14 14h-8l-20 -20v-8zM2044 81q0 -35 14 -59t38 -24 q28 4 28 36q-4 32 -19 57t-27 51q-34 -26 -34 -61zM2076 910q0 -86 112 -126l6 6v14q-48 70 -112 112h-6v-6zM2090 980l14 -14h20v34l-20 22l-14 -14v-28zM2118 1302l70 -28l20 42v6h-90v-20zM2146 1056l20 -20h22l14 14l-14 48h-22q-20 -6 -20 -42zM2160 966 q0 -90 118 -106h98v14q-26 30 -98 56q0 20 -84 36l-28 20h-6v-20zM2220 -60q36 18 36 24v180q0 22 -34 32q88 42 126 68q18 -2 22 -52v-2q28 12 142 54q8 -42 19 -76q22 -68 22 -122q0 -113 -165 -254q52 96 52 179q0 22 -11 83.5t-23 87.5q-34 -26 -34 -54h-2v-116 q0 -20 40 -30q-30 -10 -65.5 -31.5t-51.5 -21.5q-37 0 -73 51zM2348 1106l22 -22h90l14 14v8l-104 20l-22 -6v-14zM2559 132q0 46 37 64q6 2 10 4v66q0 64 38 112t128 54q-52 -56 -52 -158v-86q24 10 44 22q9 -20 9 -40q0 -46 -37 -64q-8 -4 -16 -4v-88q3 -31 26 -31 q14 0 36 11q-26 -54 -76 -91q-17 -12 -48 -12t-88 49q36 18 36 24v148q-18 -8 -38 -20q-9 20 -9 40z" />
<glyph unicode="&#x2026;" horiz-adv-x="2068" d="M100 91.5q0 43.5 31 74t74 30.5t74 -30.5t31 -74t-31 -74t-74 -30.5t-74 30.5t-31 74zM728 91.5q0 43.5 31 74t74 30.5t74 -30.5t31 -74t-31 -74t-74 -30.5t-74 30.5t-31 74zM1357 91.5q0 43.5 30.5 74t74 30.5t74 -30.5t30.5 -74t-30.5 -74t-74 -30.5t-74 30.5t-30.5 74 z" />
<glyph unicode="&#x202f;" horiz-adv-x="377" />
<glyph unicode="&#x2039;" horiz-adv-x="647" d="M100 447l447 479v-160l-297 -319l297 -319v-161z" />
<glyph unicode="&#x203a;" horiz-adv-x="647" d="M100 -33v161l296 319l-296 319v160l447 -479z" />
<glyph unicode="&#x205f;" horiz-adv-x="471" />
<glyph unicode="&#x20ac;" horiz-adv-x="1405" d="M100 538l25 127h134v66h-120l25 127h95v131q0 218 155 372.5t373 154.5t388 -170l-93 -93q-132 131 -295.5 131t-279.5 -115.5t-116 -279.5v-131h609l-25 -127h-584v-66h570l-25 -127h-545v-37q0 -164 116 -279t279.5 -115t279.5 115q72 72 104 177h135 q-39 -164 -146 -270q-154 -155 -372 -155t-373 154.5t-155 372.5v37h-159z" />
<glyph unicode="&#x2122;" horiz-adv-x="1231" d="M100 1432v91h451l233 -358l233 358l86 1v-648h-96v459l-223 -343l-223 343v-459h-96v556h-101v-556h-97v556h-167z" />
<glyph unicode="&#xe000;" horiz-adv-x="945" d="M0 0v945h945v-945h-945z" />
</font>
</defs>
</svg>
